<svg xmlns="http://www.w3.org/2000/svg" viewBox="0 0 590.93 189.96"><defs><style>.cls-1{fill:#2293d4;}.cls-2{fill:none;stroke:#2293d4;stroke-miterlimit:10;}.cls-3{fill:#fff;}.cls-4{font-size:182.41px;font-family:Metropolis-Regular, Metropolis;}</style></defs><g id="Layer_4" data-name="Layer 4"><path class="cls-1" d="M15.28,59.79H7.84a7.94,7.94,0,0,0-6.59,3.44c-1.31,1.94-2,4.48.11,7A7.81,7.81,0,0,0,7,72.85l6.75.27h0"/><circle class="cls-1" cx="72" cy="73.12" r="58.26"/><path class="cls-1" d="M283.55,73.12a58.26,58.26,0,0,1-116.32,4.81c-.13-1.59-.19-3.19-.19-4.81a58.26,58.26,0,1,1,116.51,0Z"/><path class="cls-1" d="M169.91,55c-22.43-7.47-36.47-2.77-42.53,0-5.53,2.54-14.15,7.93-13.25,11.21,1,3.56,10.43,6.54,16.13,3.21a24.32,24.32,0,0,0,2.06-1.56,26.06,26.06,0,0,1,12.31-4.45c10.83-1.39,21.37,5.27,22.52,6"/><path class="cls-2" d="M167.74,70s-19-16.65-38.19,0"/><circle class="cls-3" cx="72" cy="73.12" r="44.07"/><circle class="cls-3" cx="225.3" cy="73.12" r="44.07"/><polyline class="cls-1" points="167 72.97 167.88 189.96 179.24 189.96 179.24 101.95"/><text class="cls-4" transform="translate(290.9 130.38) scale(1.01 1)">tica</text></g></svg>