<?xml version="1.0" encoding="utf-8"?>
<!-- Generator: Adobe Illustrator 25.2.3, SVG Export Plug-In . SVG Version: 6.00 Build 0)  -->
<svg version="1.1" id="Layer_1" xmlns="http://www.w3.org/2000/svg" xmlns:xlink="http://www.w3.org/1999/xlink" x="0px" y="0px"
	 viewBox="0 0 500 500" style="enable-background:new 0 0 500 500;" xml:space="preserve">
<style type="text/css">
	.st0{fill:#FAFAFA;}
	.st1{fill:#E0E0E0;}
	.st2{fill:#EBEBEB;}
	.st3{fill:#F5F5F5;}
	.st4{fill:#FFFFFF;}
	.st5{fill:#263238;}
	.st6{fill:#49B4F7;}
	.st7{fill:#455A64;}
	.st8{opacity:0.3;}
	.st9{fill:#FFBE9D;}
	.st10{fill:#EB996E;}
	.st11{fill:#2293D4;}
	.st12{fill:none;stroke:#2293D4;stroke-miterlimit:10;}
	.st13{font-family:'Metropolis-Regular';}
	.st14{font-size:18.4833px;}
</style>
<g id="freepik--background-complete--inject-14">
	<rect x="35.3" y="34.5" class="st0" width="377.6" height="295.4"/>
	<path class="st1" d="M412.9,329.9c0-1.8-0.1-117.1-0.2-295.4l0.2,0.2l-377.6,0l0,0l0.3-0.3c0,106.5,0,207.2,0,295.4l-0.2-0.2
		L412.9,329.9l-377.5,0.2h-0.2v-0.2c0-88.1,0-188.9,0-295.4v-0.3h0.3H413h0.2v0.2C413,212.8,412.9,328.1,412.9,329.9z"/>
	<path class="st2" d="M90.4,106.8H68.1c-1.5,0-2.8-1.3-2.8-2.8c0,0,0,0,0,0V73.2c0-1.5,1.2-2.8,2.8-2.8h14.1l10.9,11.3V104
		C93.2,105.5,92,106.8,90.4,106.8C90.4,106.8,90.4,106.8,90.4,106.8z"/>
	<path class="st3" d="M82.2,70.4v8.7c0,1.4,1.2,2.6,2.6,2.6h8.3L82.2,70.4z"/>
	<path class="st1" d="M82.4,79.9c0,1.4,1,2.5,2.3,2.8c0.1,0,0.2,0,0.3,0.1c1.1,0.2,8.3,1.5,8.3,1.3v-2.3h-8.3
		C84.8,81.7,82.8,81.6,82.4,79.9z"/>
	<path class="st1" d="M90.4,106.8c0,0,0.2,0,0.5-0.1c0.5-0.1,0.9-0.3,1.3-0.6c0.6-0.5,1-1.2,1-2c0-0.9,0-1.9,0-3.1
		c0-4.7,0-11.3,0-19.4l0,0l-11-11.2h0.1H68.8c-0.4,0-0.7,0-1.1,0c-0.7,0.1-1.3,0.6-1.7,1.2c-0.3,0.4-0.5,0.9-0.5,1.3
		c0,0.5,0,1,0,1.5v3c0,2,0,3.9,0,5.9v11.1c0,1.8,0,3.5,0,5.2v3.7c0,0.4,0,0.8,0,1.2c0.2,1.1,1.1,2,2.3,2.2c0.4,0,0.7,0,1.1,0H73
		h12.7h3.4l0,0h-3.4H73h-4.2c-0.4,0-0.7,0-1.1,0c-0.4,0-0.8-0.2-1.1-0.4c-0.7-0.4-1.2-1.1-1.3-1.9c0-0.4,0-0.8,0-1.2v-8.7
		c0-3.5,0-7.3,0-11.1v-8.9c0-0.5,0-1,0-1.5c0-0.5,0.2-1,0.5-1.5c0.4-0.6,1.1-1,1.9-1.2c0.4,0,0.7,0,1.1,0h13.5l0,0l10.9,11.3l0,0
		l0,0c0,8.1,0,14.7,0,19.4c0,1.2,0,2.2,0,3.1c0,0.8-0.4,1.5-1,2c-0.4,0.3-0.8,0.5-1.3,0.6h-0.4L90.4,106.8z"/>
	<path class="st1" d="M93.2,81.7H93h-0.6h-2.3h-3.3h-2c-0.7,0-1.4-0.4-1.9-0.9c-0.2-0.3-0.4-0.6-0.5-1c-0.1-0.3-0.1-0.7-0.1-1.1v-2
		c0-1.2,0-2.4,0-3.3s0-1.7,0-2.3c0-0.2,0-0.4,0-0.6s0-0.2,0-0.2c0,0.1,0,0.1,0,0.2c0,0.2,0,0.4,0,0.6c0,0.6,0,1.3,0,2.3s0,2.1,0,3.3
		c0,0.6,0,1.3,0,2c-0.1,0.7,0.2,1.4,0.6,1.9c0.5,0.5,1.1,0.8,1.8,0.8h2h3.3h2.3h0.6C93.1,81.7,93.2,81.7,93.2,81.7z"/>
	<path class="st1" d="M81.8,78.2c0,0.1-2.6,0.1-5.9,0.1s-5.9,0-5.9-0.1s2.6-0.1,5.9-0.1S81.8,78.1,81.8,78.2z"/>
	<path class="st1" d="M87.4,82.5c0,0-3.9,0.1-8.7,0.1s-8.7,0-8.7-0.1s3.9-0.1,8.7-0.1S87.4,82.4,87.4,82.5z"/>
	<path class="st1" d="M87.4,86.8c0,0.1-3.9,0.1-8.7,0.1s-8.7,0-8.7-0.1s3.9-0.1,8.7-0.1S87.4,86.8,87.4,86.8z"/>
	<path class="st1" d="M87.4,91.2c0,0-3.9,0.1-8.7,0.1s-8.7,0-8.7-0.1s3.9-0.1,8.7-0.1S87.4,91.1,87.4,91.2z"/>
	<path class="st1" d="M87.4,95.5c0,0-3.9,0.1-8.7,0.1s-8.7,0-8.7-0.1s3.9-0.1,8.7-0.1S87.4,95.4,87.4,95.5z"/>
	<path class="st1" d="M87.4,100.8c0,0.1-3.9,0.1-8.7,0.1s-8.7,0-8.7-0.1s3.9-0.1,8.7-0.1S87.4,100.8,87.4,100.8z"/>
	<path class="st1" d="M93.1,116.1c0,0.2-6.2,0.3-13.8,0.3s-13.8-0.1-13.8-0.3s6.2-0.3,13.8-0.3S93.1,115.9,93.1,116.1z"/>
	<path class="st1" d="M88.1,119.7c-2.9,0.3-5.9,0.4-8.9,0.3c-3,0.1-5.9,0-8.9-0.3c3-0.3,5.9-0.3,8.9-0.3
		C82.2,119.3,85.2,119.4,88.1,119.7z"/>
	<path class="st2" d="M90.4,185.6H68.1c-1.5,0-2.8-1.3-2.8-2.8V152c0-1.5,1.2-2.8,2.8-2.8h14.1l10.9,11.3v22.3
		C93.2,184.3,91.9,185.6,90.4,185.6z"/>
	<path class="st3" d="M82.2,149.2v8.7c0,1.4,1.2,2.6,2.6,2.6h8.3L82.2,149.2z"/>
	<path class="st1" d="M82.4,158.6c0,1.4,1,2.5,2.3,2.8l0.3,0.1c1.1,0.2,8.3,1.5,8.3,1.3v-2.3h-8.3C84.8,160.5,82.8,160.4,82.4,158.6
		z"/>
	<path class="st1" d="M90.4,185.6c0,0,0.2,0,0.5-0.1c0.5-0.1,0.9-0.3,1.3-0.6c0.6-0.5,1-1.2,1-2c0-0.9,0-1.9,0-3.1
		c0-4.7,0-11.3,0-19.4v0.1l-11-11.2h0.1H68.8c-0.4,0-0.7,0-1.1,0c-0.7,0.1-1.3,0.6-1.7,1.2c-0.3,0.4-0.5,0.9-0.5,1.4
		c0,0.5,0,1,0,1.5v3c0,2,0,3.9,0,5.9v11.1c0,1.8,0,3.5,0,5.2v3.7c0,0.4,0,0.8,0,1.2c0.2,1.1,1.1,2,2.3,2.1c0.4,0,0.7,0,1.1,0h4.2
		h12.7h3.4l0,0h-3.4H73.1h-4.2c-0.4,0-0.7,0-1.1,0c-0.4,0-0.8-0.2-1.1-0.4c-0.7-0.4-1.2-1.1-1.3-1.9c0-0.4,0-0.8,0-1.2v-8.7
		c0-3.5,0-7.3,0-11.1v-8.9c0-0.5,0-1,0-1.5c0-0.5,0.2-1,0.5-1.5c0.4-0.6,1.1-1,1.9-1.2c0.4,0,0.7,0,1.1,0h13.4l0,0l10.9,11.3l0,0
		l0,0c0,8.1,0,14.7,0,19.4c0,1.2,0,2.2,0,3.1c0,0.8-0.4,1.5-1,2c-0.4,0.3-0.8,0.5-1.3,0.6h-0.4L90.4,185.6z"/>
	<path class="st1" d="M93.2,160.5H93h-0.6h-2.3h-3.3h-2c-0.7,0-1.4-0.4-1.9-0.9c-0.2-0.3-0.4-0.6-0.5-1c-0.1-0.3-0.1-0.7-0.1-1.1v-2
		c0-1.2,0-2.4,0-3.4s0-1.7,0-2.3c0-0.2,0-0.4,0-0.6s0-0.2,0-0.2c0,0.1,0,0.1,0,0.2c0,0.2,0,0.4,0,0.6c0,0.6,0,1.3,0,2.3s0,2.1,0,3.4
		c0,0.6,0,1.3,0,2c-0.1,0.7,0.2,1.4,0.6,1.9c0.5,0.5,1.1,0.8,1.8,0.9h2h3.3h2.3h0.6C93.1,160.4,93.2,160.5,93.2,160.5z"/>
	<path class="st1" d="M81.8,156.9c0,0.1-2.6,0.1-5.9,0.1s-5.9,0-5.9-0.1s2.6-0.1,5.9-0.1S81.8,156.9,81.8,156.9z"/>
	<path class="st1" d="M87.4,161.3c0,0-3.9,0.1-8.7,0.1s-8.7-0.1-8.7-0.1s3.9-0.1,8.7-0.1S87.4,161.2,87.4,161.3z"/>
	<path class="st1" d="M87.4,165.6c0,0.1-3.9,0.1-8.7,0.1s-8.7,0-8.7-0.1s3.9-0.1,8.7-0.1S87.4,165.5,87.4,165.6z"/>
	<path class="st1" d="M87.4,169.9c0,0.1-3.9,0.1-8.7,0.1s-8.7-0.1-8.7-0.1s3.9-0.1,8.7-0.1S87.4,169.9,87.4,169.9z"/>
	<path class="st1" d="M87.4,174.2c0,0.1-3.9,0.1-8.7,0.1s-8.7,0-8.7-0.1s3.9-0.1,8.7-0.1S87.4,174.2,87.4,174.2z"/>
	<path class="st1" d="M87.4,179.6c0,0.1-3.9,0.1-8.7,0.1s-8.7,0-8.7-0.1s3.9-0.1,8.7-0.1S87.4,179.5,87.4,179.6z"/>
	<path class="st1" d="M93.1,194.8c0,0.1-6.2,0.3-13.8,0.3s-13.8-0.1-13.8-0.3s6.2-0.3,13.8-0.3S93.1,194.7,93.1,194.8z"/>
	<path class="st1" d="M88.1,198.4c-2.9,0.3-5.9,0.4-8.9,0.3c-3,0.1-5.9,0-8.9-0.3c3-0.3,5.9-0.3,8.9-0.3
		C82.2,198.1,85.2,198.2,88.1,198.4z"/>
	<path class="st2" d="M88.9,282.2H66.6c-1.5,0-2.8-1.3-2.8-2.8v-30.8c0-1.5,1.2-2.8,2.8-2.8h14.1l10.9,11.3v22.3
		C91.7,281,90.4,282.2,88.9,282.2z"/>
	<path class="st3" d="M80.7,245.8v8.7c0,1.4,1.2,2.6,2.6,2.6h8.3L80.7,245.8z"/>
	<path class="st1" d="M80.8,255.3c0,1.4,1,2.5,2.3,2.8c0.1,0,0.2,0,0.3,0.1c1.1,0.2,8.2,1.5,8.2,1.3v-2.3h-8.3
		C83.3,257.1,81.2,257,80.8,255.3z"/>
	<path class="st1" d="M88.9,282.2c0,0,0.2,0,0.5-0.1c0.5-0.1,0.9-0.3,1.3-0.6c0.6-0.5,1-1.2,1-2c0-0.9,0-2,0-3.1
		c0-4.7,0-11.3,0-19.4l0,0l-11-11.2h0.1H67.2c-0.4,0-0.7,0-1.1,0c-0.7,0.1-1.3,0.5-1.7,1.1c-0.3,0.4-0.5,0.9-0.5,1.4
		c0,0.5,0,1,0,1.5v3c0,2,0,3.9,0,5.9v11.1c0,1.8,0,3.5,0,5.2v3.7c0,0.4,0,0.9,0.1,1.3c0.2,1.1,1.1,2,2.3,2.1c0.4,0,0.7,0,1.1,0h4.2
		h12.7h3.4h-3.5H71.5h-4.2c-0.4,0-0.7,0-1.1,0c-1.2-0.1-2.1-1-2.4-2.1c0-0.4,0-0.8,0-1.2c0-0.4,0-0.8,0-1.2v-7.6c0-3.5,0-7.3,0-11.1
		V250c0-0.5,0-1,0-1.5c0.1-1.3,1.1-2.4,2.4-2.6c0.4,0,0.7-0.1,1.1-0.1h13.5l0,0L91.7,257l0,0l0,0c0,8.1,0,14.7,0,19.4
		c0,1.2,0,2.2,0,3.1c0,0.8-0.4,1.5-1,2c-0.4,0.3-0.8,0.5-1.3,0.6c-0.1,0-0.2,0-0.4,0L88.9,282.2z"/>
	<path class="st1" d="M91.7,257.1h-0.2h-0.6h-2.3h-3.3h-2c-0.7,0-1.4-0.4-1.9-0.9c-0.3-0.3-0.4-0.6-0.6-1c-0.1-0.3-0.1-0.7-0.1-1.1
		v-2c0-1.3,0-2.4,0-3.4s0-1.7,0-2.3c0-0.2,0-0.4,0-0.6s0-0.2,0-0.2c0,0.1,0,0.1,0,0.2v0.6c0,0.6,0,1.3,0,2.3s0,2.1,0,3.4
		c0,0.6,0,1.3,0,2c-0.1,0.7,0.2,1.4,0.6,1.9c0.5,0.5,1.1,0.8,1.8,0.8h2h3.3h2.3h0.6C91.6,257.1,91.7,257.1,91.7,257.1z"/>
	<path class="st1" d="M80.3,253.6c0,0.1-2.6,0.1-5.9,0.1s-5.9,0-5.9-0.1s2.6-0.1,5.9-0.1S80.3,253.5,80.3,253.6z"/>
	<path class="st1" d="M85.9,257.9c0,0-3.9,0.1-8.7,0.1s-8.7,0-8.7-0.1s3.9-0.1,8.7-0.1S85.9,257.8,85.9,257.9z"/>
	<path class="st1" d="M85.9,262.2c0,0.1-3.9,0.1-8.7,0.1s-8.7,0-8.7-0.1s3.9-0.1,8.7-0.1S85.9,262.2,85.9,262.2z"/>
	<path class="st1" d="M85.9,266.5c0,0-3.9,0.1-8.7,0.1s-8.7,0-8.7-0.1s3.9-0.1,8.7-0.1S85.9,266.5,85.9,266.5z"/>
	<path class="st1" d="M85.9,270.9c0,0.1-3.9,0.1-8.7,0.1s-8.7,0-8.7-0.1s3.9-0.1,8.7-0.1S85.9,270.8,85.9,270.9z"/>
	<path class="st1" d="M85.9,276.2c0,0-3.9,0.1-8.7,0.1s-8.7,0-8.7-0.1s3.9-0.1,8.7-0.1S85.9,276.2,85.9,276.2z"/>
	<path class="st1" d="M91.5,291.5c0,0.1-6.2,0.3-13.8,0.3s-13.8-0.1-13.8-0.3s6.2-0.3,13.8-0.3S91.5,291.3,91.5,291.5z"/>
	<path class="st1" d="M86.6,295.1c-3,0.3-5.9,0.3-8.9,0.3c-3,0.1-5.9,0-8.9-0.3c3-0.3,5.9-0.3,8.9-0.3
		C80.7,294.7,83.7,294.8,86.6,295.1z"/>
	<path class="st2" d="M235.3,280H213c-1.5,0-2.8-1.2-2.8-2.8c0,0,0,0,0,0v-30.8c0-1.5,1.2-2.8,2.8-2.8c0,0,0,0,0,0h14.1l10.9,11.3
		v22.3C238,278.8,236.8,280,235.3,280z"/>
	<path class="st3" d="M227.1,243.6v8.7c0,1.4,1.2,2.6,2.6,2.6h8.3L227.1,243.6z"/>
	<path class="st1" d="M227.2,253.1c0,1.4,1,2.5,2.3,2.8l0.3,0.1c1.1,0.2,8.3,1.5,8.3,1.3v-2.3h-8.3
		C229.7,254.9,227.6,254.8,227.2,253.1z"/>
	<path class="st1" d="M235.3,280c0.2,0,0.3,0,0.5,0c0.5-0.1,0.9-0.3,1.3-0.6c0.6-0.5,1-1.2,1-2c0-0.9,0-1.9,0-3.1
		c0-4.7,0-11.3,0-19.4v0.1l-11-11.2h0.1h-13.5c-0.4,0-0.7,0-1.1,0c-0.7,0.1-1.3,0.5-1.7,1.1c-0.3,0.4-0.5,0.9-0.5,1.4
		c0,0.5,0,1,0,1.5v20c0,1.8,0,3.5,0,5.2v3.7c0,0.4,0,0.8,0.1,1.2c0.2,1.1,1.1,2,2.3,2.1c0.4,0,0.7,0,1.1,0h4.2h12.7h3.4h-3.4H218
		h-4.2c-0.4,0-0.7,0-1.1,0c-0.4-0.1-0.8-0.2-1.1-0.4c-0.7-0.4-1.2-1.1-1.3-1.9c-0.1-0.4-0.1-0.8-0.1-1.2v-8.9c0-3.5,0-7.3,0-11.1
		v-8.9c0-0.5,0-1,0-1.5c0-0.5,0.2-1,0.5-1.5c0.4-0.6,1.1-1,1.9-1.2c0.4,0,0.7,0,1.1,0h13.5l0,0l10.9,11.3l0,0l0,0
		c0,8.1,0,14.7,0,19.4c0,1.2,0,2.2,0,3.1c0,0.8-0.4,1.5-1,2c-0.4,0.3-0.8,0.5-1.3,0.6c-0.1,0-0.2,0-0.4,0L235.3,280z"/>
	<path class="st1" d="M238.1,254.9c0,0-0.1,0-0.2,0h-0.6L235,255h-3.4h-2c-1.1,0-2.1-0.8-2.5-1.9c-0.1-0.3-0.1-0.7-0.1-1.1
		c0-0.7,0-1.4,0-2c0-1.3,0-2.4,0-3.4s0-1.7,0-2.3c0-0.2,0-0.4,0-0.6c0-0.1,0-0.1,0-0.2c0,0.1,0,0.1,0,0.2v0.6c0,0.6,0,1.3,0,2.3
		s0,2.1,0,3.4c0,0.6,0,1.3,0,2c-0.1,0.7,0.2,1.4,0.6,1.9c0.5,0.5,1.1,0.8,1.8,0.8h2h3.4h2.3h0.6L238.1,254.9z"/>
	<path class="st1" d="M226.7,251.4c0,0-2.6,0.1-5.9,0.1s-5.9-0.1-5.9-0.1s2.6-0.1,5.9-0.1S226.7,251.3,226.7,251.4z"/>
	<path class="st1" d="M232.3,255.7c0,0.1-3.9,0.1-8.7,0.1s-8.7,0-8.7-0.1s3.9-0.1,8.7-0.1S232.3,255.6,232.3,255.7z"/>
	<path class="st1" d="M232.3,260c0,0.1-3.9,0.1-8.7,0.1s-8.7,0-8.7-0.1s3.9-0.1,8.7-0.1S232.3,260,232.3,260z"/>
	<path class="st1" d="M232.3,264.4c0,0-3.9,0.1-8.7,0.1s-8.7,0-8.7-0.1s3.9-0.1,8.7-0.1S232.3,264.3,232.3,264.4z"/>
	<path class="st1" d="M232.3,268.7c0,0.1-3.9,0.1-8.7,0.1s-8.7,0-8.7-0.1s3.9-0.1,8.7-0.1S232.3,268.6,232.3,268.7z"/>
	<path class="st1" d="M232.3,274c0,0-3.9,0.1-8.7,0.1s-8.7,0-8.7-0.1s3.9-0.1,8.7-0.1S232.3,274,232.3,274z"/>
	<path class="st1" d="M237.9,289.2c0,0.1-6.2,0.3-13.8,0.3s-13.8-0.1-13.8-0.3s6.2-0.3,13.8-0.3S237.9,289.1,237.9,289.2z"/>
	<path class="st1" d="M233,292.9c-3,0.3-5.9,0.3-8.9,0.3c-3,0.1-5.9,0-8.9-0.3c2.9-0.3,5.9-0.3,8.9-0.3
		C227.1,292.5,230,292.6,233,292.9z"/>
	<path class="st2" d="M147,56.8l1,19.9c0,0.7,0.5,1.2,1.2,1.2h30.7c0.7-0.1,1.2-0.7,1.1-1.3V61.2c0.1-0.7-0.5-1.3-1.2-1.3L161,60
		c-0.3,0-0.6-0.1-0.8-0.4l-3.3-3.8c-0.2-0.2-0.5-0.4-0.8-0.4h-8C147.4,55.5,146.9,56.2,147,56.8z"/>
	<rect x="147.5" y="57.5" class="st3" width="33.6" height="23.4"/>
	<path class="st2" d="M144.8,59.6l2.6,24.4c0,0.4,0.3,0.7,0.7,0.8h32.7c0.4,0,0.7-0.4,0.7-0.8l1.6-24.4c0.1-0.5-0.3-0.9-0.7-0.9
		c0,0,0,0,0,0h-36.9C145.1,58.7,144.7,59.1,144.8,59.6C144.8,59.5,144.8,59.5,144.8,59.6z"/>
	<path class="st1" d="M177.8,97.1c0,0.2-6.2,0.3-13.8,0.3s-13.8-0.1-13.8-0.3s6.2-0.3,13.8-0.3S177.8,97,177.8,97.1z"/>
	<path class="st1" d="M172.9,100.7c-2.9,0.3-5.9,0.4-8.9,0.3c-3,0.1-5.9,0-8.9-0.3c3-0.3,5.9-0.3,8.9-0.3
		C167,100.4,169.9,100.5,172.9,100.7z"/>
	<path class="st2" d="M148,150.5l1.1,19.9c0,0.7,0.5,1.2,1.2,1.3H181c0.7-0.1,1.2-0.7,1.1-1.3v-15.5c0.1-0.7-0.5-1.3-1.2-1.3
		c0,0,0,0,0,0l-18.9,0.1c-0.3,0-0.6-0.1-0.8-0.4l-3.3-3.8c-0.2-0.2-0.5-0.4-0.8-0.4h-8C148.5,149.1,147.9,149.7,148,150.5
		C148,150.4,148,150.5,148,150.5z"/>
	<rect x="148.5" y="151.1" class="st3" width="33.6" height="23.4"/>
	<path class="st2" d="M145.9,153.2l2.6,24.4c0,0.4,0.3,0.7,0.7,0.8h32.7c0.4,0,0.7-0.4,0.7-0.8l1.6-24.4c0.1-0.5-0.3-0.9-0.7-0.9
		c0,0,0,0,0,0h-36.9C146.2,152.3,145.8,152.7,145.9,153.2C145.9,153.2,145.9,153.2,145.9,153.2z"/>
	<path class="st1" d="M178.9,190.8c0,0.1-6.2,0.3-13.8,0.3s-13.8-0.1-13.8-0.3s6.2-0.3,13.8-0.3S178.9,190.6,178.9,190.8z"/>
	<path class="st1" d="M174,194.4c-3,0.3-5.9,0.3-8.9,0.3c-3,0.1-5.9,0-8.9-0.3c3-0.3,5.9-0.4,8.9-0.3C168.1,194,171,194.1,174,194.4
		z"/>
	<path class="st2" d="M131.8,265.9l1.1,19.9c0,0.7,0.5,1.2,1.1,1.3h30.7c0.7-0.1,1.2-0.7,1.2-1.3v-15.5c0.1-0.7-0.5-1.3-1.2-1.3
		c0,0,0,0,0,0l-18.9,0.1c-0.3,0-0.6-0.1-0.8-0.4l-3.3-3.8c-0.2-0.2-0.5-0.4-0.8-0.4h-8C132.2,264.6,131.7,265.2,131.8,265.9
		C131.8,265.9,131.8,265.9,131.8,265.9z"/>
	<rect x="132.3" y="266.6" class="st3" width="33.6" height="23.4"/>
	<path class="st2" d="M129.6,268.7l2.6,24.4c0,0.4,0.3,0.7,0.7,0.8h32.7c0.4,0,0.7-0.4,0.7-0.8l1.6-24.4c0.1-0.5-0.3-0.9-0.7-0.9
		c0,0,0,0,0,0h-36.9C129.9,267.7,129.6,268.1,129.6,268.7C129.6,268.6,129.6,268.6,129.6,268.7z"/>
	<path class="st1" d="M162.6,306.2c0,0.1-6.2,0.3-13.8,0.3s-13.8-0.1-13.8-0.3s6.2-0.3,13.8-0.3S162.6,306.1,162.6,306.2z"/>
	<path class="st1" d="M157.7,309.9c-3,0.3-5.9,0.3-8.9,0.3c-3,0.1-5.9,0-8.9-0.3c3-0.3,5.9-0.4,8.9-0.3
		C151.8,309.5,154.8,309.6,157.7,309.9z"/>
	<rect x="244.2" y="51.3" class="st4" width="222.2" height="195.4"/>
	<path class="st1" d="M466.4,246.8c0-1.9-0.1-77.8-0.2-195.4l0.2,0.2H244.2l0,0l0.3-0.3c0,71,0,137.9,0,195.4l-0.2-0.2L466.4,246.8
		l-222.2,0.2H244v-0.2c0-57.5,0-124.4,0-195.4V51h0.3h222.2h0.2v0.2C466.5,168.9,466.4,244.9,466.4,246.8z"/>
	<path class="st1" d="M467.1,71.4c0,0.1-49.3,0.2-110.2,0.2s-110.2-0.1-110.2-0.2s49.3-0.2,110.2-0.2S467.1,71.3,467.1,71.4z"/>
	<path class="st2" d="M259.4,62.2c0,1.3-1,2.3-2.2,2.3c-1.3,0-2.3-1-2.3-2.2c0-1.3,1-2.3,2.2-2.3c0,0,0,0,0,0
		C258.3,60,259.3,61,259.4,62.2z"/>
	<path class="st2" d="M266.8,62.2c0,1.3-1,2.3-2.2,2.3c-1.3,0-2.3-1-2.3-2.2c0-1.3,1-2.3,2.2-2.3c0,0,0,0,0,0
		C265.8,60,266.8,61,266.8,62.2z"/>
	<path class="st2" d="M274.3,62.2c0,1.3-1,2.3-2.2,2.3c-1.3,0-2.3-1-2.3-2.2c0-1.3,1-2.3,2.2-2.3c0,0,0,0,0,0
		C273.3,60,274.3,61,274.3,62.2z"/>
	<path class="st1" d="M456.1,88.6c0.1,0,0.2,0,0.4-0.1c0.4-0.1,0.6-0.4,0.8-0.7c0.1-0.3,0.1-0.5,0.1-0.8c0-0.3,0-0.6,0-1
		c0-0.7,0-1.6,0-2.5s0-2,0-3.1c0-0.3,0-0.6,0-0.9c-0.1-0.6-0.5-1.1-1.1-1.1h-1h-9.1h-52.5c-0.6,0-1.1,0.4-1.1,1V87
		c0,0.3,0,0.6,0.1,0.8c0.1,0.2,0.3,0.4,0.6,0.5c0.1,0,0.3,0.1,0.4,0.1h17.1h23.6l15.9,0.1h4.3h1.1h0.4c-0.1,0-0.3,0-0.4,0h-1.1h-4.3
		l-15.9,0.1h-23.6h-14h-3.2c-0.2,0-0.3,0-0.5-0.1c-0.3-0.1-0.6-0.4-0.8-0.7c-0.2-0.3-0.2-0.7-0.2-1v-7.2c0.1-0.8,0.7-1.3,1.5-1.3
		h52.5h9.1h1c0.7,0,1.3,0.6,1.3,1.2c0,0.3,0,0.6,0,0.9c0,1.1,0,2.2,0,3.1s0,1.8,0,2.5c0,0.4,0,0.7,0,1c0,0.3,0,0.6-0.1,0.8
		c-0.2,0.4-0.5,0.6-0.8,0.7C456.4,88.6,456.3,88.6,456.1,88.6z"/>
	<path class="st1" d="M396.3,84.8l0.2-0.4c0.3,0.2,0.7,0.4,1.1,0.4c0.6,0,0.8-0.2,0.8-0.5c0-0.8-2-0.3-2-1.5c0-0.5,0.4-0.9,1.2-0.9
		c0.4,0,0.7,0.1,1,0.3l-0.1,0.4c-0.3-0.2-0.6-0.3-0.9-0.3c-0.6,0-0.8,0.2-0.8,0.5c0,0.8,2,0.3,2,1.5c0,0.5-0.4,0.9-1.3,0.9
		C397.1,85.2,396.7,85.1,396.3,84.8z"/>
	<path class="st1" d="M401.7,84.1h-2c0.1,0.4,0.5,0.8,0.9,0.7c0.3,0,0.5-0.1,0.7-0.3l0.2,0.3c-0.3,0.3-0.6,0.4-1,0.4
		c-0.7,0-1.3-0.5-1.3-1.2c0,0,0,0,0-0.1c0-0.7,0.5-1.2,1.2-1.3c0,0,0,0,0.1,0c0.7,0,1.2,0.5,1.2,1.2C401.7,83.9,401.7,84,401.7,84.1
		C401.7,84,401.7,84.1,401.7,84.1z M399.7,83.8h1.6c0-0.4-0.4-0.7-0.8-0.7C400,83,399.7,83.4,399.7,83.8L399.7,83.8z"/>
	<path class="st1" d="M404.2,83.7v1.5h-0.4v-0.3c-0.2,0.2-0.5,0.4-0.8,0.3c-0.6,0-0.9-0.3-0.9-0.7s0.3-0.7,1-0.7h0.7v-0.1
		c0-0.4-0.2-0.6-0.7-0.6c-0.3,0-0.6,0.1-0.8,0.3l-0.2-0.3c0.3-0.2,0.6-0.3,1-0.3C403.8,82.7,404.2,83,404.2,83.7z M403.8,84.4v-0.3
		H403c-0.4,0-0.6,0.2-0.6,0.4s0.2,0.4,0.5,0.4C403.3,84.9,403.6,84.7,403.8,84.4z"/>
	<path class="st1" d="M406.4,82.7v0.4h-0.1c-0.4,0-0.8,0.3-0.8,0.7c0,0,0,0.1,0,0.1v1.2H405v-2.5h0.4v0.4
		C405.6,82.8,406,82.6,406.4,82.7z"/>
	<path class="st1" d="M406.7,84c0-0.7,0.5-1.3,1.2-1.3c0.1,0,0.1,0,0.2,0c0.4,0,0.8,0.2,1,0.5l-0.3,0.2c-0.1-0.2-0.4-0.4-0.7-0.4
		c-0.5,0.1-0.8,0.5-0.8,1c0,0.4,0.4,0.7,0.8,0.8c0.3,0,0.5-0.1,0.7-0.4l0.3,0.2c-0.2,0.3-0.6,0.6-1,0.5
		C407.3,85.3,406.7,84.8,406.7,84C406.7,84,406.7,84,406.7,84z"/>
	<path class="st1" d="M411.9,83.8v1.4h-0.5v-1.4c0-0.5-0.2-0.7-0.7-0.7c-0.4,0-0.8,0.3-0.8,0.7c0,0,0,0.1,0,0.1v1.3h-0.5v-3.5h0.5
		v1.3c0.2-0.3,0.5-0.4,0.9-0.4C411.4,82.7,411.9,83.1,411.9,83.8C411.9,83.7,411.9,83.7,411.9,83.8z"/>
	<path class="st1" d="M412.5,84.9c0-0.2,0.1-0.3,0.3-0.3c0,0,0,0,0,0c0.2,0,0.3,0.1,0.3,0.3c0,0.2-0.1,0.3-0.3,0.3
		C412.7,85.2,412.5,85.1,412.5,84.9C412.5,84.9,412.5,84.9,412.5,84.9z"/>
	<path class="st1" d="M413.6,84.9c0-0.2,0.1-0.3,0.3-0.3l0,0c0.2,0,0.3,0.1,0.3,0.3c0,0.2-0.1,0.3-0.3,0.3
		C413.7,85.2,413.6,85.1,413.6,84.9L413.6,84.9z"/>
	<path class="st1" d="M414.6,84.9c0-0.2,0.1-0.3,0.3-0.3l0,0c0.2,0,0.3,0.1,0.3,0.3c0,0.2-0.1,0.3-0.3,0.3
		C414.8,85.2,414.6,85.1,414.6,84.9L414.6,84.9z"/>
	<path class="st1" d="M381.9,105.3v35h42.6v-35c0-1.7-1.3-3-3-3h-36.6C383.3,102.3,381.9,103.6,381.9,105.3
		C381.9,105.3,381.9,105.3,381.9,105.3z"/>
	<polyline class="st3" points="383.9,121.3 384.2,108.4 421.4,108.4 421.4,115.8 	"/>
	<rect x="386.6" y="105" class="st3" width="32.6" height="3.5"/>
	<path class="st1" d="M386.6,105h0.6h1.9l6.9-0.1l23.2-0.1h0.2v0.1c0,1.1,0,2.3,0,3.5c-0.4,0.3-0.1,0.1-0.2,0.2h-10.4h-9.2l-13-0.1
		h-0.1v-0.1c0-1.1,0-2,0-2.6c0-0.3,0-0.5,0-0.7C386.5,105.2,386.5,105.1,386.6,105c-0.1,0.1-0.1,0.2-0.1,0.3c0,0.2,0,0.4,0,0.7
		c0,0.6,0,1.5,0,2.6l-0.1-0.1l13-0.1h9.2H419c-0.1,0.1,0.2-0.2-0.2,0.2V105l0.2,0.2l-23.1-0.1H389h-1.9L386.6,105L386.6,105z"/>
	<path class="st1" d="M423,149.1c0,0.1-8.1,0.2-18.2,0.2s-18.2-0.1-18.2-0.2s8.1-0.2,18.2-0.2S423,149,423,149.1z"/>
	<path class="st2" d="M378.6,115l3.3,25.4h42.6v-24.6h-19.3l-3.8-3.3h-20.6c-1.2,0-2.2,1-2.2,2.2C378.6,114.8,378.6,114.9,378.6,115
		z"/>
	<path class="st1" d="M412.8,125.7c0,0.1-4.7,0.2-10.4,0.2s-10.4-0.1-10.4-0.2s4.7-0.2,10.4-0.2S412.8,125.6,412.8,125.7z"/>
	<path class="st1" d="M412.8,128.2c0,0.1-4.7,0.2-10.4,0.2s-10.4-0.1-10.4-0.2s4.7-0.2,10.4-0.2S412.8,128.1,412.8,128.2z"/>
	<path class="st1" d="M414,153.9c0,0.1-5.1,0.2-11.4,0.2s-11.4-0.1-11.4-0.2s5.1-0.2,11.4-0.2S414,153.8,414,153.9z"/>
	<path class="st1" d="M289.2,105.3v35h42.6v-35c0-1.7-1.3-3-3-3h-36.6C290.6,102.3,289.2,103.6,289.2,105.3
		C289.2,105.3,289.2,105.3,289.2,105.3z"/>
	<polyline class="st3" points="291.2,121.3 291.5,108.4 328.8,108.4 328.8,115.8 	"/>
	<rect x="293.9" y="105" class="st3" width="32.6" height="3.5"/>
	<path class="st1" d="M293.9,105h0.6h1.9l6.9-0.1l23.2-0.1h0.2v0.1c0,1.1,0,2.3,0,3.5c-0.4,0.3-0.1,0.1-0.2,0.2h-10.4h-9.2l-13-0.1
		h-0.1v-0.1c0-1.1,0-2,0-2.6c0-0.3,0-0.5,0-0.7C293.9,105.2,293.9,105.1,293.9,105c-0.1,0.1-0.1,0.2-0.1,0.3c0,0.2,0,0.4,0,0.7
		c0,0.6,0,1.5,0,2.6l-0.1-0.1l13-0.1h9.2h10.5c-0.1,0.1,0.2-0.2-0.2,0.2V105l0.2,0.2l-23.1-0.1h-6.9h-1.9h-0.5L293.9,105z"/>
	<path class="st1" d="M330.3,149.1c0,0.1-8.1,0.2-18.2,0.2s-18.2-0.1-18.2-0.2s8.1-0.2,18.2-0.2S330.3,149,330.3,149.1z"/>
	<path class="st2" d="M286,115l3.3,25.4h42.6v-24.6h-19.4l-3.8-3.3h-20.6c-1.2,0-2.2,1-2.2,2.3C286,114.8,286,114.9,286,115z"/>
	<path class="st1" d="M320.1,125.7c0,0.1-4.7,0.2-10.4,0.2s-10.4-0.1-10.4-0.2s4.7-0.2,10.4-0.2S320.1,125.6,320.1,125.7z"/>
	<path class="st1" d="M320.1,128.2c0,0.1-4.7,0.2-10.4,0.2s-10.4-0.1-10.4-0.2s4.7-0.2,10.4-0.2S320.1,128.1,320.1,128.2z"/>
	<path class="st1" d="M321.4,153.9c0,0.1-5.1,0.2-11.4,0.2s-11.4-0.1-11.4-0.2s5.1-0.2,11.4-0.2S321.4,153.8,321.4,153.9z"/>
	<path class="st1" d="M287.9,179.8v35h42.6v-35c0-1.7-1.3-3-3-3h-36.6C289.3,176.7,287.9,178.1,287.9,179.8
		C287.9,179.7,287.9,179.7,287.9,179.8z"/>
	<polyline class="st3" points="289.9,195.8 290.2,182.9 327.5,182.9 327.5,190.2 	"/>
	<rect x="292.6" y="179.4" class="st3" width="32.6" height="3.5"/>
	<path class="st1" d="M292.6,179.4h0.2h0.5h1.9l6.9-0.1l23.2-0.1h0.2v3.6c-0.4,0.4-0.1,0.1-0.2,0.2h-10.4h-9.2l-13-0.1h-0.1V183
		c0-1.1,0-2,0-2.6c0-0.3,0-0.5,0-0.6S292.5,179.5,292.6,179.4c-0.1,0.2-0.1,0.2-0.1,0.3c0,0.2,0,0.4,0,0.7c0,0.6,0,1.5,0,2.6
		l-0.1-0.1l13-0.1h9.2H325c-0.1,0.1,0.2-0.2-0.2,0.2v-3.5l0.2,0.2l-23.1-0.1H295h-1.9h-0.7L292.6,179.4z"/>
	<path class="st1" d="M329,223.6c0,0.1-8.1,0.2-18.2,0.2s-18.2-0.1-18.2-0.2s8.1-0.2,18.2-0.2S329,223.5,329,223.6z"/>
	<path class="st2" d="M284.6,189.4l3.3,25.4h42.6v-24.6h-19.3l-3.8-3.3h-20.6c-1.2,0-2.2,1-2.2,2.2
		C284.6,189.2,284.6,189.3,284.6,189.4z"/>
	<path class="st1" d="M318.8,200.2c0,0.1-4.7,0.2-10.4,0.2s-10.4-0.1-10.4-0.2s4.7-0.2,10.4-0.2S318.8,200.1,318.8,200.2z"/>
	<path class="st1" d="M318.8,202.7c0,0.1-4.7,0.2-10.4,0.2s-10.4-0.1-10.4-0.2s4.7-0.2,10.4-0.2S318.8,202.6,318.8,202.7z"/>
	<path class="st1" d="M320,228.3c0,0.1-5.1,0.2-11.4,0.2s-11.4-0.1-11.4-0.2s5.1-0.2,11.4-0.2S320,228.2,320,228.3z"/>
	<path class="st1" d="M381.6,179.8v35h42.6v-35c0-1.7-1.3-3-3-3h-36.6C382.9,176.7,381.6,178.1,381.6,179.8
		C381.6,179.7,381.6,179.7,381.6,179.8z"/>
	<polyline class="st3" points="383.6,195.8 383.8,182.9 421.1,182.9 421.1,190.2 	"/>
	<rect x="386.3" y="179.4" class="st3" width="32.6" height="3.5"/>
	<path class="st1" d="M386.3,179.4c0,0,0,0,0.1,0h0.5h1.9l6.9-0.1l23.2-0.1h0.2v3.6l-0.2,0.2h-10.4h-9.2l-13-0.1h-0.1V183
		c0-1.1,0-2,0-2.6c0-0.3,0-0.5,0-0.6S386.2,179.5,386.3,179.4c0,0.2,0,0.2,0,0.3c0,0.2,0,0.4,0,0.7c0,0.6,0,1.5,0,2.6l-0.1-0.1
		l13-0.1h9.2h10.4c-0.1,0.1,0.2-0.2-0.2,0.2v-3.5l0.2,0.2l-23.1-0.1h-6.9h-1.9h-0.7L386.3,179.4z"/>
	<path class="st1" d="M422.6,223.6c0,0.1-8.1,0.2-18.2,0.2s-18.2-0.1-18.2-0.2s8.1-0.2,18.2-0.2S422.6,223.5,422.6,223.6z"/>
	<path class="st2" d="M378.3,189.4l3.3,25.4h42.6v-24.6h-19.4l-3.8-3.3h-20.6c-1.2,0-2.2,1-2.2,2.2
		C378.3,189.2,378.3,189.3,378.3,189.4z"/>
	<path class="st1" d="M412.4,200.2c0,0.1-4.7,0.2-10.4,0.2s-10.4-0.1-10.4-0.2s4.7-0.2,10.4-0.2S412.4,200.1,412.4,200.2z"/>
	<path class="st1" d="M412.4,202.7c0,0.1-4.7,0.2-10.4,0.2s-10.4-0.1-10.4-0.2s4.7-0.2,10.4-0.2S412.4,202.6,412.4,202.7z"/>
	<path class="st1" d="M413.7,228.3c0,0.1-5.1,0.2-11.4,0.2s-11.4-0.1-11.4-0.2s5.1-0.2,11.4-0.2S413.7,228.2,413.7,228.3z"/>
</g>
<g id="freepik--Table--inject-14">
	<path class="st5" d="M463.4,465.7c0,0.1-98.2,0.3-219.4,0.3s-219.4-0.1-219.4-0.3s98.2-0.3,219.4-0.3S463.4,465.5,463.4,465.7z"/>
</g>
<g id="freepik--speech-bubble--inject-14">
	<path class="st0" d="M297.4,261h-77.7l-14.9,22l-14.5-22h-76.4c-4.9,0-8.8-4-8.8-8.8V100.8c0-4.9,3.9-8.8,8.8-8.8c0,0,0,0,0,0
		h183.4c4.9,0,8.8,4,8.8,8.8c0,0,0,0,0,0v151.4C306.2,257.1,302.2,261,297.4,261z"/>
	<path class="st5" d="M297.4,261h0.5c0.5,0,1-0.1,1.4-0.2c3.3-0.7,5.8-3.3,6.6-6.5c0.1-0.4,0.2-0.8,0.2-1.1c0-0.4,0-0.8,0-1.2
		c0-0.8,0-1.7,0-2.6c0-3.7,0-7.9,0-12.6c0-19,0-46.4-0.1-80.2c0-16.9,0-35.5,0-55.4c0.1-3.8-2.4-7.3-6-8.4c-1.2-0.4-2.5-0.5-3.7-0.4
		h-48.4h-70.3h-63.4c-0.4,0-0.8,0-1.2,0c-0.4,0-0.8,0.1-1.2,0.2c-3.1,0.8-5.5,3.2-6.3,6.3c-0.3,1.4-0.3,2.9-0.2,4.3v64
		c0,22.1,0,43.6,0,64.2v19c-0.1,1.2,0,2.5,0.2,3.7c0.5,2.4,1.9,4.5,4,5.7c1,0.6,2.2,1,3.3,1.1c1.2,0.1,2.4,0,3.6,0.1h21.4h52.4h0.1
		l0.1,0.1l14.5,22h-0.3l14.9-22l0.1-0.1h0.1L277,261h15.2h3.9H297.4h-1.3h-3.9H277l-57.3,0.1l0.1-0.1c-4.6,6.9-9.5,14.2-14.8,22
		l-0.1,0.2l-0.1-0.2l-14.5-22l0.2,0.1H138h-21.4c-1.2,0-2.4,0-3.7-0.1c-3.9-0.4-7-3.3-7.8-7.1c-0.2-1.2-0.2-2.5-0.2-3.8v-19
		c0-20.6,0-42,0-64.2v-66.2c0-4.2,2.8-7.9,6.9-8.9c0.4-0.1,0.8-0.2,1.2-0.2c0.4,0,0.8,0,1.2,0h182.1c1.3-0.1,2.6,0.1,3.9,0.4
		c1.2,0.4,2.4,1.1,3.3,2c1,0.9,1.7,1.9,2.2,3.1c0.5,1.2,0.7,2.5,0.7,3.8c0,19.9,0,38.5,0,55.4c0,33.9-0.1,61.3-0.1,80.2
		c0,4.7,0,8.9,0,12.6c0,0.9,0,1.8,0,2.6c0,0.4,0,0.8,0,1.2c0,0.4-0.1,0.8-0.2,1.2c-0.8,3.3-3.4,5.8-6.7,6.6
		c-0.5,0.1-0.9,0.2-1.4,0.2L297.4,261z"/>
	<path class="st5" d="M183.2,185c0,2-1.5,3.2-3.8,3.2h-1.8v2.4h-2v-8.8h3.8C181.8,181.8,183.2,183.1,183.2,185z M181.2,185
		c0-1-0.6-1.5-1.9-1.5h-1.7v3.1h1.7C180.6,186.6,181.2,186,181.2,185z"/>
	<path class="st5" d="M190.5,186.8v3.9h-1.8v-0.8c-0.5,0.7-1.3,1-2.1,0.9c-1.6,0-2.5-0.9-2.5-2.1s0.9-2,2.9-2h1.6
		c0-0.8-0.5-1.3-1.6-1.3c-0.7,0-1.4,0.2-2,0.6l-0.7-1.4c0.9-0.6,1.9-0.8,2.9-0.8C189.3,183.8,190.5,184.7,190.5,186.8z M188.5,188.5
		v-0.7h-1.4c-0.9,0-1.2,0.3-1.2,0.8s0.4,0.8,1.1,0.8C187.7,189.5,188.3,189.1,188.5,188.5L188.5,188.5z"/>
	<path class="st5" d="M191.6,190l0.6-1.4c0.7,0.4,1.5,0.6,2.4,0.6c0.9,0,1.2-0.2,1.2-0.6c0-1.1-4.1,0-4.1-2.7c0-1.3,1.2-2.2,3.1-2.2
		c0.9,0,1.8,0.2,2.6,0.6l-0.6,1.4c-0.6-0.3-1.3-0.5-2-0.5c-0.9,0-1.3,0.3-1.3,0.6c0,1.2,4.1,0,4.1,2.7c0,1.3-1.2,2.1-3.2,2.1
		C193.5,190.7,192.5,190.5,191.6,190z"/>
	<path class="st5" d="M198.3,190l0.6-1.4c0.7,0.4,1.5,0.6,2.4,0.6c0.9,0,1.2-0.2,1.2-0.6c0-1.1-4.1,0-4.1-2.7c0-1.3,1.2-2.2,3.1-2.2
		c0.9,0,1.8,0.2,2.6,0.6l-0.7,1.4c-0.6-0.3-1.3-0.5-1.9-0.5c-0.9,0-1.2,0.3-1.2,0.6c0,1.2,4.1,0,4.1,2.7c0,1.3-1.2,2.1-3.2,2.1
		C200.2,190.7,199.2,190.5,198.3,190z"/>
	<path class="st5" d="M216.3,183.9l-2.4,6.8H212l-1.5-4.2l-1.6,4.2H207l-2.4-6.8h1.9l1.6,4.6l1.7-4.6h1.7l1.6,4.6l1.6-4.6H216.3z"/>
	<path class="st5" d="M216.6,187.3c-0.1-2.1,1.4-3.8,3.5-4c2.1-0.1,3.8,1.4,4,3.5c0.1,2.1-1.4,3.8-3.5,4c-0.1,0-0.2,0-0.2,0
		c-1.9,0.1-3.6-1.3-3.7-3.2C216.6,187.4,216.6,187.4,216.6,187.3z M222,187.3c-0.1-1-0.9-1.7-1.9-1.6c-1,0.1-1.7,0.9-1.6,1.9
		c0.1,0.9,0.8,1.6,1.7,1.6c0.9,0,1.7-0.8,1.7-1.7C222,187.4,222,187.3,222,187.3L222,187.3z"/>
	<path class="st5" d="M229.5,183.8v1.8h-0.4c-0.9-0.1-1.7,0.6-1.8,1.5c0,0.1,0,0.3,0,0.4v3.2h-2v-6.8h1.9v0.9
		C227.7,184.1,228.6,183.7,229.5,183.8z"/>
	<path class="st5" d="M237.5,181.3v9.3h-1.9v-0.8c-0.5,0.6-1.3,0.9-2.1,0.9c-1.9,0-3.5-1.6-3.5-3.5s1.6-3.5,3.5-3.5
		c0.8,0,1.5,0.3,2,0.8v-3.3L237.5,181.3z M235.6,187.3c-0.1-1-0.9-1.7-1.9-1.6c-1,0.1-1.7,0.9-1.6,1.9c0.1,0.9,0.8,1.6,1.7,1.6
		c0.9,0,1.7-0.7,1.7-1.7C235.6,187.4,235.6,187.3,235.6,187.3L235.6,187.3z"/>
	<path class="st2" d="M143.6,205.8h12.7c3,0,5.5,2.5,5.5,5.5v21.8c0,3-2.5,5.5-5.5,5.5h-12.7c-3,0-5.5-2.5-5.5-5.5v-21.8
		C138.1,208.3,140.6,205.8,143.6,205.8z"/>
	<path class="st2" d="M200.2,205.8h12.1c3,0,5.5,2.5,5.5,5.5v21.8c0,3-2.5,5.5-5.5,5.5h-12.1c-3,0-5.5-2.5-5.5-5.5v-21.8
		C194.7,208.3,197.2,205.8,200.2,205.8z"/>
	<path class="st2" d="M172.5,205.8h12.1c3,0,5.5,2.5,5.5,5.5v21.8c0,3-2.5,5.5-5.5,5.5h-12.1c-3,0-5.5-2.5-5.5-5.5v-21.8
		C167,208.3,169.4,205.8,172.5,205.8z"/>
	<path class="st2" d="M227.8,205.8h12.8c3,0,5.5,2.5,5.5,5.5v21.8c0,3-2.5,5.5-5.5,5.5h-12.8c-3,0-5.5-2.5-5.5-5.5v-21.8
		C222.3,208.3,224.7,205.8,227.8,205.8z"/>
	<path class="st2" d="M255,205.8h12.8c3,0,5.5,2.5,5.5,5.5v21.8c0,3-2.5,5.5-5.5,5.5H255c-3,0-5.5-2.5-5.5-5.5v-21.8
		C249.5,208.3,251.9,205.8,255,205.8z"/>
	<path class="st6" d="M153,221.4l2.5,1.4l-1.1,1.9l-2.6-1.5v2.8h-2.2v-2.8l-2.6,1.5l-1.1-1.9l2.5-1.4L146,220l1.1-1.9l2.6,1.5v-2.8
		h2.2v2.8l2.6-1.5l1.1,1.9L153,221.4z"/>
	<path class="st6" d="M180.7,221.2l2.5,1.4l-1.1,1.9l-2.6-1.5l0.1,2.8h-2.2V223l-2.6,1.5l-1.1-1.9l2.5-1.4l-2.5-1.4l1.1-1.9l2.6,1.5
		v-2.8h2.2l-0.1,2.8l2.6-1.5l1.1,1.9L180.7,221.2z"/>
	<path class="st6" d="M209,221.2l2.5,1.4l-1.1,1.9l-2.6-1.5l0.1,2.8h-2.2V223l-2.6,1.5l-1.1-1.9l2.5-1.4l-2.5-1.4l1.1-1.9l2.6,1.5
		v-2.8h2.2l-0.1,2.8l2.6-1.5l1.1,1.9L209,221.2z"/>
	<path class="st6" d="M236.4,221.2l2.5,1.4l-1.1,1.9l-2.6-1.5l0.1,2.8h-2.2V223l-2.6,1.5l-1.1-1.9l2.5-1.4l-2.5-1.4l1.1-1.9l2.6,1.5
		v-2.8h2.2l-0.1,2.8l2.6-1.5l1.1,1.9L236.4,221.2z"/>
	<path class="st5" d="M156.1,238.8h-12.3c-3.2,0-5.7-2.6-5.7-5.7v-21.8c0-3.2,2.6-5.7,5.7-5.7h12.3c3.2,0,5.7,2.6,5.7,5.7l0,0v21.8
		C161.8,236.3,159.3,238.8,156.1,238.8z M143.9,206c-2.9,0-5.3,2.4-5.3,5.3v21.8c0,2.9,2.4,5.3,5.3,5.3h12.3c2.9,0,5.3-2.4,5.3-5.3
		v-21.7c0-2.9-2.4-5.3-5.3-5.3L143.9,206z"/>
	<path class="st5" d="M184.6,238.8h-12.3c-3.2,0-5.7-2.6-5.7-5.7v-21.8c0-3.2,2.6-5.7,5.7-5.7h12.3c3.2,0,5.7,2.6,5.7,5.7v21.8
		C190.3,236.3,187.7,238.8,184.6,238.8z M172.3,206c-2.9,0-5.3,2.4-5.3,5.3v21.8c0,2.9,2.4,5.3,5.3,5.3h12.3c2.9,0,5.3-2.4,5.3-5.3
		v-21.7c0-2.9-2.4-5.3-5.3-5.3L172.3,206z"/>
	<path class="st5" d="M212.3,238.8H200c-3.2,0-5.7-2.6-5.7-5.7v-21.8c0-3.2,2.6-5.7,5.7-5.7h12.3c3.2,0,5.7,2.6,5.7,5.7v21.8
		C218,236.3,215.4,238.8,212.3,238.8z M200,206c-2.9,0-5.3,2.4-5.3,5.3v21.8c0,2.9,2.4,5.3,5.3,5.3h12.3c2.9,0,5.3-2.4,5.3-5.3
		v-21.7c0-2.9-2.4-5.3-5.3-5.3L200,206z"/>
	<path class="st5" d="M240.3,238.8H228c-3.2,0-5.7-2.6-5.7-5.7v-21.8c0-3.2,2.6-5.7,5.7-5.7l0,0h12.3c3.2,0,5.7,2.6,5.7,5.7v21.8
		C246,236.3,243.4,238.8,240.3,238.8z M228,206c-2.9,0-5.3,2.4-5.3,5.3v21.8c0,2.9,2.4,5.3,5.3,5.3h12.3c2.9,0,5.3-2.4,5.3-5.3
		v-21.7c0-2.9-2.4-5.3-5.3-5.3L228,206z"/>
	<path class="st5" d="M267.5,238.8h-12.3c-3.2,0-5.7-2.6-5.7-5.7v-21.8c0-3.2,2.6-5.7,5.7-5.7l0,0h12.3c3.2,0,5.7,2.6,5.7,5.7v21.8
		C273.2,236.3,270.6,238.8,267.5,238.8z M255.2,206c-2.9,0-5.3,2.4-5.3,5.3v21.8c0,2.9,2.4,5.3,5.3,5.3h12.3c2.9,0,5.3-2.4,5.3-5.3
		v-21.7c0-2.9-2.4-5.3-5.3-5.3L255.2,206z"/>
	<path class="st6" d="M267.9,230.1c-2.2,0.3-4.4,0.4-6.6,0.3c-2.2,0.1-4.4,0-6.6-0.3c2.2-0.3,4.4-0.3,6.6-0.3
		C263.5,229.8,265.7,229.9,267.9,230.1z"/>
	<circle class="st6" cx="206.7" cy="145.4" r="26.5"/>
	<path class="st4" d="M202.1,140.5h-0.4v-2.5c-0.1-2.9,2.1-5.3,4.9-5.4s5.3,2.1,5.4,4.9c0,0.2,0,0.3,0,0.5v2h-0.4v-2
		c0.1-2.6-1.9-4.8-4.5-4.9s-4.8,1.9-4.9,4.5c0,0.1,0,0.3,0,0.4V140.5z"/>
	<path class="st4" d="M213.3,157.8h-13.1c-1.2,0-2.2-1-2.2-2.2c0,0,0,0,0,0v-13.1c0-1.2,1-2.2,2.2-2.2h13.1c1.2,0,2.2,1,2.2,2.2
		v13.1C215.5,156.8,214.5,157.8,213.3,157.8z M200.2,140.8c-1,0-1.7,0.8-1.7,1.7c0,0,0,0,0,0v13.1c0,1,0.8,1.7,1.7,1.7c0,0,0,0,0,0
		h13.1c1,0,1.7-0.8,1.7-1.7c0,0,0,0,0,0v-13.1c0-1-0.8-1.7-1.7-1.7c0,0,0,0,0,0H200.2z"/>
	<path class="st4" d="M206.8,149.5c-1.1,0-2.1-0.9-2.1-2.1s0.9-2.1,2.1-2.1s2.1,0.9,2.1,2.1c0,0,0,0,0,0
		C208.9,148.6,207.9,149.5,206.8,149.5z M206.8,145.8c-0.9,0-1.6,0.7-1.6,1.6c0,0.9,0.7,1.6,1.6,1.6c0.9,0,1.6-0.7,1.6-1.6
		c0,0,0,0,0,0C208.4,146.5,207.7,145.8,206.8,145.8C206.8,145.8,206.8,145.8,206.8,145.8L206.8,145.8z"/>
	<rect x="206.5" y="149.2" class="st4" width="0.4" height="3.7"/>
	
		<ellipse transform="matrix(0.2149 -0.9766 0.9766 0.2149 122.0321 365.6436)" class="st1" cx="288.4" cy="106.9" rx="8.2" ry="8.2"/>
	<path class="st4" d="M285.8,109.8c-0.1,0-0.1,0-0.2-0.1c-0.1-0.1-0.1-0.2,0-0.3c0,0,0,0,0,0l5.3-5.3c0.1-0.1,0.2-0.1,0.3,0
		c0,0,0,0,0,0c0.1,0.1,0.1,0.3,0,0.4c0,0,0,0,0,0l-5.3,5.3C285.9,109.8,285.9,109.8,285.8,109.8z"/>
	<path class="st4" d="M291.1,109.8c-0.1,0-0.1,0-0.2-0.1l-5.3-5.3c-0.1-0.1-0.1-0.3,0-0.4c0,0,0,0,0,0c0.1-0.1,0.2-0.1,0.3,0
		c0,0,0,0,0,0l5.3,5.3c0.1,0.1,0.1,0.2,0,0.3c0,0,0,0,0,0C291.2,109.8,291.2,109.8,291.1,109.8z"/>
</g>
<g id="freepik--Plant--inject-14">
	<path class="st7" d="M78.1,415.5c0,0-26.4-30.4-36.4-60.8s-5.2-26.9-5.2-26.9s13.5,29.5,23.7,43.8s28.4,35.2,28.4,35.2L78.1,415.5z
		"/>
	<path class="st7" d="M83.3,332.5c-0.4-0.7-1.4-1-2.1-0.6c-0.6,0.3-0.9,0.9-0.8,1.6c1.6,10.7,5.1,35.8,5,52c-0.2,21.1,0,29.3,0,29.3
		h11c0,0-2-43.7-4.4-57C90.2,348.5,86.5,338.1,83.3,332.5z"/>
	<path class="st7" d="M89.3,411.3c4.6-10.4,7.7-21.5,9.1-32.8c0.9-7.8-0.7-18.3-3.1-32.3c-0.9-5.1-1.4-10.3-1.4-15.5
		c0-1.4,1.2-2.6,2.6-2.6c0.9,0,1.8,0.5,2.3,1.4c1.3,2.4,5.2,10.5,6.2,15.5c2.7,13.8,5.7,20.8,3.4,33.9s-10.8,33.4-10.8,33.4
		L89.3,411.3z"/>
	<path class="st7" d="M99.2,412.1c0,0,29-62.3,31-71.6s8.9-30.6,9.6-29.4s2,12.5-3.2,25.3S109.1,414,109.1,414h-9.9"/>
	<path class="st5" d="M86.1,409.4c-0.3-0.2-0.6-0.3-0.8-0.6c-0.5-0.4-1.3-0.9-2.2-1.7c-1.9-1.5-4.6-3.8-7.8-6.9
		c-8.1-8-15.2-17.1-21-27c-5.8-9.9-10.6-20.3-14.4-31.1c-1.5-4.1-2.5-7.5-3.2-9.9c-0.4-1.2-0.6-2.1-0.8-2.7c-0.1-0.3-0.2-0.7-0.2-1
		c0.1,0.3,0.3,0.6,0.3,0.9c0.2,0.7,0.5,1.6,0.9,2.7c0.8,2.3,1.9,5.7,3.4,9.8c3.9,10.7,8.7,21.1,14.5,31c5.8,9.8,12.8,18.9,20.8,27
		c3.1,3.1,5.8,5.4,7.6,7c0.9,0.8,1.7,1.4,2.2,1.8C85.7,408.9,85.9,409.1,86.1,409.4z"/>
	<path class="st5" d="M89.3,379.5c-0.2-0.6-0.2-1.2-0.3-1.8c-0.1-1.3-0.3-3-0.5-5c-0.5-4.2-1.2-10-2.2-16.4s-2.2-12.1-3.1-16.3
		c-0.4-2-0.8-3.6-1.1-4.9c-0.2-0.6-0.3-1.2-0.3-1.8c0.2,0.6,0.4,1.2,0.6,1.8c0.3,1.1,0.8,2.8,1.2,4.9c1,4.1,2.2,9.9,3.2,16.3
		s1.7,12.2,2,16.5c0.2,2.1,0.3,3.8,0.3,5C89.3,378.2,89.4,378.8,89.3,379.5z"/>
	<path class="st5" d="M96.1,328.9c0.1,0.2,0.3,0.5,0.3,0.8l0.9,2.3c0.4,1,0.8,2.2,1.2,3.7s1,3.1,1.4,5l0.7,2.9
		c0.2,1,0.4,2.1,0.6,3.2c0.5,2.2,0.8,4.6,1.1,7.1c0.6,5.5,0.9,11,0.7,16.5c-0.2,5.5-0.9,11-1.9,16.4c-0.5,2.5-1,4.9-1.6,7
		c-0.3,1.1-0.6,2.2-0.9,3.2l-0.9,2.9c-0.6,1.8-1.2,3.5-1.8,4.9s-1,2.6-1.5,3.6l-1,2.2c-0.1,0.3-0.2,0.5-0.4,0.8
		c0.1-0.3,0.2-0.5,0.3-0.8c0.2-0.6,0.6-1.3,0.9-2.3s0.9-2.2,1.4-3.6s1.2-3,1.7-4.9c0.3-0.9,0.6-1.9,0.9-2.9s0.5-2.1,0.8-3.1
		c0.6-2.2,1-4.5,1.6-7c1-5.4,1.6-10.9,1.8-16.4c0.2-5.5-0.1-11-0.6-16.4c-0.3-2.5-0.6-4.9-1.1-7.1c-0.2-1.1-0.4-2.2-0.6-3.2
		s-0.5-2-0.7-2.9c-0.4-1.9-0.9-3.5-1.3-5s-0.8-2.7-1.2-3.7l-0.8-2.4C96.3,329.5,96.2,329.2,96.1,328.9z"/>
	<path class="st5" d="M139.6,312.5c0,0.1,0,0.2,0,0.3c0,0.2-0.1,0.5-0.1,0.8c-0.1,0.7-0.3,1.8-0.6,3.1c-0.6,2.7-1.5,6.5-3,11.2
		s-3.4,10.2-5.8,16.2s-5.1,12.6-7.6,19.6s-4.6,13.8-6.5,20s-3.7,11.8-5.4,16.3c-1.3,3.6-2.8,7.2-4.5,10.7c-0.6,1.2-1.1,2.1-1.5,2.8
		l-0.4,0.7c-0.1,0.2-0.1,0.2-0.2,0.2c0-0.1,0.1-0.2,0.1-0.3l0.3-0.7c0.3-0.6,0.8-1.6,1.4-2.8c1.2-2.5,2.7-6.1,4.4-10.7
		s3.4-10.1,5.2-16.4s3.9-13,6.5-20s5.3-13.6,7.7-19.6s4.4-11.5,5.9-16.1s2.5-8.5,3.1-11.1c0.3-1.3,0.5-2.4,0.7-3.1
		c0.1-0.3,0.1-0.6,0.2-0.8C139.5,312.7,139.5,312.6,139.6,312.5z"/>
	<path class="st7" d="M50.1,298.7c-1-1-2.6-0.9-3.5,0c-0.6,0.7-0.9,1.6-0.6,2.5c1,3.2,2.2,6.3,3.6,9.4c4,8.5,15.7,38.9,21.2,55.6
		S84,414,84,414l11.7-1.9c0,0-10.7-51.1-21.1-69.6C66.2,327.7,57.7,306.3,50.1,298.7z"/>
	<path class="st5" d="M74,376.6c0.3,0.4,0.5,0.9,0.6,1.4c0.3,0.9,0.8,2.3,1.3,3.9c1.1,3.3,2.4,8,3.7,13.2s2.4,9.9,3.2,13.3
		c0.3,1.6,0.6,3,0.9,4c0.1,0.5,0.2,1,0.2,1.5c-0.2-0.5-0.4-1-0.5-1.5c-0.3-1.1-0.6-2.4-1.1-4c-0.9-3.5-2.1-8.1-3.4-13.3
		s-2.6-9.9-3.5-13.2c-0.5-1.6-0.8-2.9-1.2-4C74.2,377.6,74.1,377.1,74,376.6z"/>
	<path class="st5" d="M89.9,413.1c0-0.1-0.1-0.2-0.1-0.3c0-0.2-0.1-0.5-0.1-0.9c-0.1-0.8-0.2-2-0.5-3.5c-0.4-3.1-1.2-7.5-2.4-12.9
		c-1.5-6.3-3.3-12.6-5.5-18.7c-2.4-6.9-5.4-14.4-8.8-22.2c-6.9-15.5-13.8-29.2-18.3-39.4c-2.3-5.1-4-9.2-5.2-12.1
		c-0.6-1.4-1-2.6-1.3-3.3c-0.1-0.4-0.2-0.6-0.3-0.9c0-0.1-0.1-0.2-0.1-0.3c0.1,0.1,0.1,0.2,0.2,0.3l0.4,0.9c0.3,0.8,0.8,1.9,1.4,3.3
		c1.2,2.9,3.1,7,5.4,12c4.6,10.1,11.6,23.8,18.5,39.3c3.4,7.8,6.4,15.3,8.8,22.3c2.1,6.2,3.9,12.4,5.4,18.8c1,4.3,1.7,8.6,2.3,13
		c0.2,1.5,0.3,2.8,0.4,3.6l0.1,0.9C89.9,412.9,89.9,413,89.9,413.1z"/>
	<path class="st5" d="M95.8,412.1c-0.2-0.7-0.3-1.3-0.4-2c-0.2-1.4-0.5-3.2-0.9-5.4c-0.8-4.5-2-10.8-3.8-17.6s-3.7-12.8-5.2-17.2
		c-0.7-2.1-1.4-3.8-1.8-5.1c-0.3-0.6-0.5-1.3-0.6-1.9c0.3,0.6,0.6,1.2,0.8,1.8c0.5,1.2,1.2,2.9,2,5.1c2.1,5.6,3.9,11.4,5.4,17.2
		c1.5,5.8,2.7,11.7,3.7,17.7c0.3,2.3,0.6,4.1,0.7,5.4C95.7,410.8,95.7,411.5,95.8,412.1z"/>
	<rect x="74.1" y="410.5" class="st6" width="45.7" height="55.7"/>
	<g class="st8">
		<rect x="74.1" y="410.5" width="45.7" height="55.7"/>
	</g>
	<rect x="64.7" y="410.5" class="st6" width="40.5" height="55.7"/>
</g>
<g id="freepik--Character--inject-14">
	<polygon class="st9" points="386.9,286.6 362.9,283.1 314.8,290.2 301.3,295 303.7,324.5 349.9,333 381.1,323.7 392.9,306.4 	"/>
	<path class="st6" d="M402.1,289.4l-20.1-4.7c0,0-14.2,44-49.3,42.1c-28.6-1.5-28.9-33.5-28.9-33.5l-20.6,6.6c0,0-7.9,52.9,0.8,90.3
		c2,8.8,4.8,20.5,4.8,20.5l-2.8,54.7l152.4,0.2L402.1,289.4L402.1,289.4z"/>
	<g class="st8">
		<path d="M342.3,454.8c7.4-0.2,14.3,0.4,21.7,0.3c8.9-0.2,17.9-0.4,26.7,1c6.6,1.1,13,3.1,19.6,4.1c9,1.4,18.6,0.9,26.6-3.4
			l-1.3-7.5l-30.4-7.3L342.3,454.8z"/>
	</g>
	<path class="st6" d="M265.9,312.2c7-9,18.6-12.8,18.6-12.8l7.8,67.9l-14.8,98.9l-48.4-0.2C229.1,465.9,255.8,325.2,265.9,312.2z"/>
	<path class="st6" d="M399.7,288.9c0,0,32.6,2.6,44.2,56c5.3,24.1,12,52.4,13.9,71.4c1.4,13.8-6.1,35.4-19.8,37.1l-17.3,2.3
		c-3.4,0.5-6.8,0.4-10.2-0.4c-10.9-2.5-12-10-14-18l-5-15.9c-2.8-15.1,11.4-18,19.1-17.8l-5.8-69.1L399.7,288.9z"/>
	<path class="st5" d="M280.4,337.2c-0.1,0.2-0.1,0.5-0.1,0.7c-0.1,0.5-0.2,1.3-0.3,2.1c-0.1,0.5-0.1,1-0.2,1.6s-0.1,1.2-0.2,1.9
		c-0.1,1.3-0.3,2.9-0.4,4.5c-0.2,4-0.3,7.9-0.1,11.9c0.2,4.8,0.7,9.7,1.4,14.5c0.8,5.1,1.7,9.9,2.6,14.3s1.9,8.3,2.7,11.5
		s1.5,5.9,2,7.7c0.2,0.9,0.4,1.6,0.6,2.1c0.1,0.2,0.1,0.5,0.2,0.7c0-0.3-0.1-0.5-0.1-0.7c-0.1-0.5-0.3-1.2-0.5-2.1
		c-0.5-1.9-1.1-4.5-1.9-7.8s-1.7-7.2-2.6-11.6s-1.9-9.2-2.6-14.3s-1.3-10-1.5-14.4s-0.2-8.5,0-11.8c0-1.7,0.2-3.2,0.3-4.5
		c0-0.7,0.1-1.3,0.1-1.9c0.1-0.6,0.1-1.1,0.2-1.6c0.1-0.9,0.2-1.6,0.2-2.2C280.4,337.7,280.4,337.4,280.4,337.2z"/>
	<path class="st5" d="M436.2,422.4c0-0.5-0.1-0.9-0.2-1.4c-0.3-1.2-0.7-2.4-1.3-3.5c-3.5-7.7-10.7-13-19.1-13.9
		c-1.2-0.2-2.5-0.2-3.7-0.1c-0.5,0-0.9,0.1-1.4,0.2c1.7,0,3.3,0.1,5,0.3c8.2,1.1,15.2,6.3,18.8,13.7
		C435.1,419.2,435.7,420.8,436.2,422.4z"/>
	<path class="st5" d="M428.7,395.8c-0.3-0.1-0.5-0.1-0.8-0.1c-0.7,0-1.4,0-2.1,0.1c-2.4,0.2-4.7,0.8-6.9,1.7
		c-2.2,0.9-4.2,2.1-6.1,3.6c-0.6,0.4-1.1,0.9-1.6,1.4c-0.4,0.4-0.5,0.6-0.5,0.6s0.9-0.7,2.3-1.8c3.8-2.8,8.2-4.6,12.8-5.3
		C427.6,395.9,428.7,395.9,428.7,395.8z"/>
	<path class="st5" d="M395,326.7c0.1-0.5,0.1-1,0.1-1.4c0-0.9,0.1-2.2,0.2-3.9c0.6-8.5,2.9-16.8,6.9-24.4c0.8-1.5,1.4-2.6,1.9-3.4
		c0.3-0.4,0.5-0.8,0.7-1.3c-0.3,0.4-0.6,0.7-0.9,1.1c-0.5,0.8-1.2,1.9-2,3.3c-4.2,7.6-6.5,16-6.9,24.6c-0.1,1.6-0.1,3,0,3.9
		C394.9,325.8,394.9,326.3,395,326.7z"/>
	<path class="st5" d="M332.6,375.1c0,0.2,0.1,0.4,0.1,0.6c0.1,0.4,0.3,0.9,0.5,1.6c0.7,1.9,1.6,3.7,2.7,5.5
		c7.2,11.9,20.8,18.4,34.6,16.6c2-0.3,4-0.7,6-1.3c0.7-0.2,1.2-0.4,1.6-0.6c0.2-0.1,0.4-0.1,0.5-0.2c0,0-0.8,0.2-2.1,0.6
		c-2,0.6-4,0.9-6,1.1c-13.6,1.6-26.9-4.8-34.2-16.4c-1.1-1.7-2-3.5-2.8-5.4C333,375.9,332.7,375.1,332.6,375.1z"/>
	<path class="st5" d="M401.3,450.2c0,0,0.6,0.7,1.8,1.7c1.8,1.3,3.8,2.3,6,2.8c3.2,0.8,6.5,1.1,9.8,0.9c3.7-0.3,7.8-0.7,12.1-1.3
		c4-0.5,8-1.4,11.8-2.7c1.6-0.7,3.1-1.7,4.3-2.9c1.1-1,2.1-2.2,3-3.5c1.3-1.8,2.4-3.7,3.3-5.8c0.3-0.7,0.5-1.3,0.7-1.7
		c0.1-0.2,0.1-0.4,0.3-0.6c0,0.2-0.1,0.4-0.2,0.6c-0.1,0.4-0.3,1-0.6,1.7c-0.8,2.1-1.9,4.1-3.2,5.9c-0.9,1.3-1.9,2.5-3,3.5
		c-1.3,1.3-2.8,2.3-4.4,3c-3.9,1.3-7.8,2.3-11.9,2.8c-4.3,0.6-8.4,1.1-12.1,1.3c-3.3,0.2-6.7-0.1-9.9-1c-2.2-0.6-4.2-1.6-6-3
		c-0.5-0.4-0.9-0.8-1.3-1.3C401.5,450.6,401.4,450.4,401.3,450.2z"/>
	<path class="st5" d="M395.9,343.7c0.1,0,3.6,13.3,7.7,29.8s7.3,29.9,7.2,29.9s-3.6-13.3-7.7-29.8S395.8,343.8,395.9,343.7z"/>
	<path class="st5" d="M391.7,419c-0.1-0.4-0.2-0.7-0.2-1.1c-0.1-1-0.1-2-0.1-3c0.1-1.5,0.6-3,1.5-4.3c0.5-0.8,1-1.5,1.7-2.1
		c0.7-0.7,1.5-1.2,2.3-1.7c3-1.6,6.2-2.6,9.5-3.1c1-0.1,2-0.2,3-0.3c0.4-0.1,0.7-0.1,1.1,0c0,0.1-1.6,0.1-4.1,0.6
		c-3.2,0.6-6.4,1.6-9.3,3.1c-0.8,0.5-1.5,1-2.2,1.6c-0.6,0.6-1.1,1.3-1.6,2c-0.8,1.2-1.3,2.6-1.5,4c-0.1,1-0.1,2-0.1,3
		C391.8,418.2,391.8,418.6,391.7,419z"/>
	<g class="st8">
		<path d="M281.9,382c-8.3-14.1-8.5-32.4-1.2-47c-2.3,15.6-1.8,31.5,1.5,46.9"/>
	</g>
	<path class="st9" d="M325.9,417.1L325.9,417.1L325.9,417.1z"/>
	<path class="st9" d="M326.2,417.2l0.1,0.1L326.2,417.2z"/>
	<path class="st9" d="M326,417.1l0.3,0.1L326,417.1z"/>
	<path class="st9" d="M325.8,417l0.1,0.1L325.8,417z"/>
	<path class="st9" d="M295.2,445.1c2.6-4.9,23-18,23-18l-5.5-1.3l-6.1,2.6c-0.5,2.1-1.4,4-2.6,5.7c-2.2,3.2-6-0.1-6-0.1l2.6-12.4
		l12.1-7.3c0,0,11.4,1.7,13.2,2.6l4.8,4.4c2.1,1.7,8.3,8.2,10,8.4s54.4-11.6,54.4-11.6l0,0c7.2,5.7,11,17.1,12.2,25.3
		c0,0,1.3,4-0.1,6.2l-64.7,5.1l-13.7,3.8c-3.7,1.5-7.4,2.8-11.3,3.9c-4.6,1-7.6-0.5-7.8-3s3.4-2.8,3.4-2.8c3-1.1,6-2.4,8.8-3.9
		c2.1-1.4,3.8-3.3,5-5.5l-4.9,0.6c0,0-10.4,7.2-14.3,9.3s-4.7-1.8-5-3s11.7-12.9,11.7-12.9s-11.4,7-13.5,8.8s-5.1,2.3-5.7,1.1
		S292.6,450,295.2,445.1z"/>
	<path class="st9" d="M326.4,417.3l0.1,0.1L326.4,417.3z"/>
	<path class="st9" d="M326.6,417.4"/>
	<path class="st9" d="M326.5,417.4L326.5,417.4L326.5,417.4z"/>
	<path class="st10" d="M351.4,446.2c0.1-0.3,0.1-0.5,0.1-0.8c0-0.3,0-0.6-0.1-0.9c0-0.4-0.1-0.8-0.2-1.2c-0.7-2.3-1.8-4.5-3.3-6.4
		c-1.5-1.9-3.2-3.6-5-5.2c-0.7-0.7-1.5-1.3-2.4-1.8c0.7,0.7,1.4,1.4,2.1,2.1c1.7,1.6,3.4,3.4,4.8,5.2c1.5,1.8,2.6,3.9,3.4,6.2
		C351.4,445.1,351.3,446.3,351.4,446.2z"/>
	<path class="st10" d="M318.7,426.7c2.4,0.3,4.8-0.5,6.5-2.2c-0.1-0.1-1.3,0.8-3.1,1.4S318.7,426.6,318.7,426.7z"/>
	<path class="st10" d="M315.3,440.3c3.5-1.1,6.9-2.5,10.2-4.2c-1.8,0.5-3.5,1.1-5.2,1.9C318.6,438.6,316.9,439.4,315.3,440.3z"/>
	<path class="st10" d="M326.2,447.2c0.9-0.2,1.8-0.5,2.7-1c0.9-0.3,1.8-0.6,2.6-1.1C329.6,445.3,327.8,446,326.2,447.2z"/>
	<path class="st10" d="M317,441.2c0.7,0.5,1.4,1.1,2,1.8c0.5,0.8,0.9,1.6,1.2,2.4c0.1,0,0.1-0.3,0-0.9c-0.1-0.7-0.4-1.3-0.8-1.9
		c-0.4-0.5-1-1-1.6-1.3C317.3,441.1,317,441.1,317,441.2z"/>
	<path class="st10" d="M312.2,433.6c-0.1,0.1,0.8,0.6,1.4,1.6c0.3,0.7,0.5,1.3,0.7,2c0.3-0.8,0.2-1.7-0.3-2.3
		C313.3,433.8,312.2,433.5,312.2,433.6z"/>
	<path class="st10" d="M313.8,420.1c0.1,0,0.2-0.2,0.4-0.6c0.2-0.6,0.2-1.2,0-1.8c-0.1-0.6-0.4-1.1-0.9-1.6
		c-0.3-0.3-0.6-0.5-0.6-0.4c0.4,0.7,0.8,1.4,1,2.1C313.8,418.6,313.9,419.4,313.8,420.1z"/>
	<path class="st5" d="M407.6,451.6c-0.1-0.5-0.1-1-0.1-1.5c0-0.5,0-1.1-0.1-1.7s-0.1-1.5-0.2-2.3c-0.4-4.4-1.3-8.8-2.8-13
		c-0.8-2.3-1.9-4.5-3.1-6.6c-0.6-1-1.1-1.9-1.7-2.7c-0.3-0.4-0.6-0.8-0.8-1.2s-0.6-0.7-0.8-1c-2.1-2.6-3.8-4-3.7-4.1
		c0.4,0.3,0.8,0.6,1.2,0.9c0.5,0.4,0.9,0.8,1.3,1.2c0.5,0.5,1,1,1.6,1.7c0.3,0.3,0.6,0.7,0.9,1s0.6,0.8,0.9,1.2
		c0.6,0.8,1.2,1.8,1.8,2.7c1.2,2.1,2.3,4.4,3.1,6.7c1.5,4.2,2.4,8.6,2.7,13.1c0.1,0.9,0.1,1.6,0.1,2.3s0,1.3,0,1.8
		C407.7,450.6,407.7,451.1,407.6,451.6z"/>
	<g class="st8">
		<path d="M429.8,405.4c-6.1-2.5-12.8-3.1-19.2-1.8l0,0c11.3-0.5,21.7,6.2,25.9,16.7c0.5,1.2,1.4,2.7,2.7,2.5s1.7-1.7,1.7-3
			C440.9,413.4,435.8,407.8,429.8,405.4z"/>
	</g>
	<path class="st4" d="M280,332.6c-0.3-0.1-0.6-0.2-0.9-0.3c-0.5-0.2-1.3-0.6-2.3-1c-2.5-1.2-4.8-2.7-7-4.3c-2.2-1.6-4.3-3.4-6.1-5.4
		c-0.7-0.8-1.3-1.4-1.6-1.9s-0.6-0.7-0.5-0.8s0.9,0.9,2.4,2.3c1.9,1.9,4,3.6,6.2,5.2c2.2,1.6,4.5,3.1,6.8,4.4
		C278.9,332,280.1,332.5,280,332.6z"/>
	<path class="st4" d="M395.5,336.4c-0.1,0.1-0.2,0.1-0.2,0.2l-0.8,0.5c-0.7,0.4-1.7,1-3,1.7c-3.8,1.9-7.6,3.6-11.6,4.9
		c-5.9,2-12,3.4-18.2,4.4c-7.6,1.1-15.2,1.8-22.9,1.9c-8.1,0.2-15.9,0-23-0.1c-6.3-0.1-12.5-0.6-18.7-1.4c-4.2-0.6-8.3-1.5-12.3-2.9
		c-1.4-0.5-2.5-0.9-3.2-1.2l-0.8-0.4c-0.1,0-0.2-0.1-0.3-0.1l0.3,0.1l0.8,0.3c0.7,0.3,1.8,0.6,3.2,1.1c4,1.2,8.1,2.1,12.3,2.7
		c6.2,0.8,12.4,1.2,18.7,1.3c7,0.1,14.8,0.3,22.9,0.1c7.6-0.1,15.3-0.8,22.8-1.9c6.2-0.9,12.3-2.3,18.2-4.2c4-1.3,7.9-2.9,11.7-4.7
		c1.3-0.7,2.4-1.2,3-1.6l0.8-0.4C395.4,336.4,395.5,336.4,395.5,336.4z"/>
	<path class="st4" d="M280.4,372c-0.4,0-0.8-0.1-1.2-0.3l-3.3-0.9c-2.8-0.8-6.7-1.9-10.9-3.2s-8.1-2.5-10.9-3.3l-3.3-1.1
		c-0.4-0.1-0.8-0.3-1.2-0.5c0.4,0,0.8,0.1,1.2,0.3l3.3,0.9c2.8,0.8,6.7,1.9,10.9,3.2s8.1,2.5,10.9,3.3l3.3,1.1
		C279.6,371.7,280,371.8,280.4,372z"/>
	<path class="st4" d="M283.3,427.3c0,0.1-10-2.7-22.3-6.4s-22.2-6.8-22.1-6.9s10,2.7,22.3,6.4S283.3,427.1,283.3,427.3z"/>
	<path class="st4" d="M427.8,307.7c-0.3,0.3-0.7,0.6-1.1,0.9c-0.7,0.5-1.8,1.3-3.1,2.1c-7.1,4.6-14.6,8.3-22.6,11.1
		c-1.5,0.5-2.8,0.9-3.6,1.2c-0.4,0.2-0.9,0.3-1.4,0.3c0.4-0.2,0.9-0.4,1.3-0.5l3.6-1.3c3-1.1,7.1-2.9,11.5-5s8.3-4.4,11-6l3.2-2
		C427,308.1,427.4,307.9,427.8,307.7z"/>
	<path class="st4" d="M447.7,364.5c-0.5,0.3-1.1,0.6-1.6,0.8c-1,0.5-2.6,1.1-4.5,1.8c-10.1,3.7-20.8,5.8-31.6,6.3
		c-2.1,0.1-3.7,0.1-4.9,0.1c-0.6,0-1.2,0-1.8-0.1c0.6-0.1,1.2-0.1,1.8-0.1c1.1,0,2.8-0.1,4.9-0.2c5.4-0.3,10.7-1,16-2.1
		c5.3-1.1,10.4-2.5,15.5-4.2c2-0.7,3.5-1.2,4.6-1.6C446.6,364.8,447.2,364.7,447.7,364.5z"/>
	<path class="st4" d="M419,455.4c0-0.2,0-0.4,0-0.6c0.1-0.4,0.1-0.9,0.2-1.6s0.2-1.5,0.4-2.5s0.3-2.1,0.3-3.3c0-0.6,0.1-1.3,0.1-1.9
		s0-1.4,0-2.1c0-1.5-0.1-3-0.1-4.6c-0.3-3.5-0.8-7-1.6-10.5c-0.8-3.4-2-6.8-3.3-10.1c-0.7-1.5-1.3-2.9-2-4.2c-0.3-0.6-0.6-1.3-1-1.9
		l-1-1.7c-0.6-1.1-1.3-2-1.8-2.8s-1-1.5-1.5-2.1l-0.9-1.3c-0.1-0.1-0.2-0.3-0.3-0.5c0.1,0.1,0.3,0.3,0.4,0.4l1,1.2
		c0.5,0.6,1.1,1.3,1.5,2c0.6,0.8,1.2,1.7,1.9,2.8l1,1.7c0.4,0.6,0.7,1.2,1,1.9c0.7,1.3,1.4,2.7,2,4.2c2.9,6.6,4.6,13.6,5,20.7
		c0.1,1.6,0.1,3.2,0.1,4.7c0,0.7,0,1.4-0.1,2.1s-0.1,1.3-0.1,1.9c-0.1,1.2-0.3,2.4-0.4,3.3s-0.3,1.8-0.4,2.5s-0.3,1.1-0.4,1.6
		C419,455,419,455.2,419,455.4z"/>
	<path class="st4" d="M457.6,424.7c0,0-0.1-0.8-0.3-2.3c-0.4-2-1-4-2-5.8c-1.4-2.7-3.3-5.1-5.6-7.1c-2.8-2.5-6.1-4.4-9.6-5.6
		c-3.6-1.2-7.3-1.8-11-1.9c-3.1-0.1-6.1,0-9.2,0.4c-2.6,0.2-4.7,0.5-6.2,0.7l-1.7,0.2c-0.2,0-0.4,0-0.6,0c0.2-0.1,0.4-0.1,0.6-0.1
		l1.7-0.3c1.5-0.2,3.6-0.5,6.2-0.8c3.1-0.4,6.2-0.5,9.2-0.5c3.8,0.1,7.6,0.7,11.2,1.9c3.6,1.3,6.9,3.2,9.8,5.8
		c2.3,2.1,4.3,4.5,5.7,7.3c0.9,1.9,1.6,3.9,1.8,6c0.1,0.6,0.1,1.1,0.1,1.7C457.6,424.4,457.6,424.6,457.6,424.7z"/>
	<path class="st4" d="M350,395.8c-0.2,0.1-0.4,0.1-0.6,0.1l-1.6,0.2l-6,0.5c-5.1,0.4-12.1,0.9-19.8,1.3s-14.8,0.6-19.9,0.7
		c-2.5,0-4.6,0-6,0h-1.6c-0.2,0-0.4,0-0.6-0.1c0.2,0,0.4-0.1,0.6,0h1.6l6-0.1c5.1-0.1,12.1-0.5,19.8-0.9l19.8-1.1l6-0.3l1.6-0.1
		C349.6,395.8,349.8,395.8,350,395.8z"/>
	<g class="st8">
		<path d="M355.8,397.9c6.3,1.9,15,2.3,21.2,0c-4.8,6.8-14.1,9.3-22.1,7.1s-15.5-10.3-16.1-18.6C342.7,391.6,349.5,396,355.8,397.9z
			"/>
	</g>
	<path class="st4" d="M406.9,391.3c-0.2,0.1-0.3,0.1-0.5,0.1l-1.5,0.3c-1.3,0.3-3.1,0.6-5.4,1c-4.5,0.8-10.9,1.8-17.9,2.6
		s-13.4,1.4-18,1.7c-2.3,0.2-4.2,0.3-5.5,0.3l-1.5,0c-0.2,0-0.3,0-0.5,0c0.2,0,0.3-0.1,0.5-0.1l1.5-0.1l5.4-0.5
		c4.6-0.4,10.9-1,17.9-1.9s13.3-1.8,17.9-2.5l5.4-0.8l1.5-0.2C406.5,391.3,406.7,391.3,406.9,391.3z"/>
	<g class="st8">
		<path d="M396.4,346.8c-1.6,18.1,3.4,36.1,8.2,53.6c0.2,1.1,0.7,2.1,1.3,3c0.7,0.9,1.9,1.2,3,0.8c1.5-0.8,1.3-3,0.9-4.6l-13.6-52"
			/>
	</g>
	<path class="st1" d="M143.2,364.8l20.6,100.9h178.4c2,0,3.6-1.6,3.6-3.6l0,0c0-2-1.6-3.6-3.6-3.6h-35.9l-19-93.8
		c-0.4-1.8-1.9-3.1-3.8-3.1l-136.3-1.5c-2.1,0-3.9,1.7-3.9,3.8C143.1,364.2,143.2,364.5,143.2,364.8z"/>
	<path class="st5" d="M143.2,364.8c0-0.1,0-0.2-0.1-0.3c0-0.3,0-0.6,0-0.9c0.1-1.2,0.8-2.3,1.9-3c0.4-0.2,0.8-0.4,1.2-0.5
		c0.5-0.1,0.9-0.1,1.4-0.1h3.2l8,0.1l51.6,0.5l35.9,0.4l20.1,0.2l10.6,0.1l5.4,0c0.5,0,0.9,0,1.4,0c0.5,0,0.9,0.2,1.4,0.4
		c0.9,0.4,1.6,1.1,2,2c0.2,0.4,0.3,0.9,0.4,1.4l0.3,1.4c0.2,0.9,0.4,1.8,0.5,2.7c0.4,1.8,0.8,3.7,1.1,5.5l2.3,11.2
		c1.5,7.6,3.1,15.3,4.7,23.2c3.2,15.8,6.6,32.3,10,49.2l-0.2-0.2h35.3c0.5,0,0.9,0,1.4,0.1c1,0.2,1.8,0.8,2.3,1.7
		c1.2,1.7,0.8,4.1-1,5.3c-0.1,0.1-0.2,0.1-0.3,0.2c-0.5,0.3-1.1,0.4-1.7,0.5h-46.5h-48.3h-83.8h-0.1v-0.1
		c-6.3-31-11.4-56.2-14.9-73.7c-1.8-8.7-3.1-15.5-4.1-20.2c-0.5-2.3-0.8-4.1-1-5.3S143.3,364.9,143.2,364.8c0.1,0.1,0.2,0.7,0.5,1.9
		l1.1,5.2c0.9,4.6,2.4,11.4,4.1,20.1l15.1,73.7l-0.2-0.2h83.8h94.8c0.5,0,1-0.2,1.5-0.4c1.6-0.9,2.2-2.9,1.3-4.5
		c-0.1-0.1-0.1-0.2-0.2-0.3c-0.5-0.7-1.2-1.2-2-1.4c-0.4-0.1-0.9-0.1-1.3-0.1H306v-0.2c-3.4-17-6.8-33.4-10-49.2
		c-1.6-7.9-3.2-15.6-4.7-23.2l-2.3-11.4c-0.4-1.9-0.7-3.7-1.1-5.5c-0.2-0.9-0.4-1.8-0.6-2.7l-0.3-1.4c-0.1-0.4-0.2-0.9-0.4-1.3
		c-0.3-0.8-0.9-1.4-1.7-1.8c-0.4-0.2-0.8-0.3-1.2-0.4c-0.4,0-0.9,0-1.3,0l-5.4-0.1l-10.6-0.1l-20.1-0.2l-35.9-0.4l-51.6-0.6l-8-0.1
		l-3.2,0c-0.5,0-0.9,0-1.4,0.1c-0.4,0.1-0.8,0.2-1.1,0.5c-1,0.6-1.7,1.7-1.9,2.9C143.2,364,143.2,364.4,143.2,364.8z"/>
	<path class="st4" d="M225.4,411c0,3.3-2.6,5.9-5.9,5.9s-5.9-2.6-5.9-5.9c0-3.3,2.6-5.9,5.9-5.9C222.8,405.1,225.4,407.7,225.4,411
		L225.4,411z"/>
	<path class="st5" d="M143.4,365.6c0,0,0.2,0,0.6,0h8.7l25.5,0.1l84.1,0.6l12.2,0.1h3c0.5,0,1,0,1.5,0.1c0.5,0.1,1,0.3,1.4,0.6
		c0.9,0.6,1.5,1.4,1.8,2.5c0.2,1,0.4,1.9,0.6,2.9c1.5,7.6,3,14.9,4.4,21.9c2.8,14,5.2,26.5,7.3,37.1l4.9,25c0.6,3,1,5.2,1.3,6.8
		c0.1,0.8,0.2,1.4,0.3,1.8s0.1,0.6,0.1,0.6s-0.1-0.2-0.1-0.6s-0.2-1-0.4-1.8c-0.3-1.6-0.8-3.9-1.4-6.8c-1.2-5.9-2.9-14.5-5.1-25
		l-7.4-37.1c-1.4-7-2.9-14.3-4.4-21.9c-0.2-0.9-0.4-1.9-0.6-2.8c-0.2-0.9-0.8-1.7-1.6-2.2c-0.4-0.2-0.8-0.4-1.3-0.5
		c-0.5-0.1-1-0.1-1.4-0.1h-3l-12.2-0.1l-84.2-0.7l-25.5-0.3l-6.9-0.1H144L143.4,365.6z"/>
	<path class="st5" d="M381.6,212.4c0.4,18.9-7.3,37-21.1,49.9c-3.2-9.1-6.3-18.2-9.4-27.3"/>
	<path class="st5" d="M310.6,158.1c8.1-4.4,17.9-5.1,26.9-3.2s17.5,5.9,25.4,10.5c4.5,2.6,8.9,5.4,12.2,9.5
		c5.9,7.4,11.7,19.5,12.2,29c0.5,7.6-2.5,26.7-5.7,33.6c-3,6.4-16.8,11.2-23.6,12.8l-62.6-72.9C297.7,169.1,303.2,162.2,310.6,158.1
		z"/>
	<path class="st5" d="M299.8,167.9l15-2.7c-8.2,19.6-10.4,64.2-15.1,84.9c-5.5-8-18.4-32.5-17.7-42.2S282,166.2,299.8,167.9z"/>
	<path class="st9" d="M371,200.4c-0.8-11.4-8.2-20.8-19.3-23.6l-34.6-8.8c-14.9-1.6-24.9,16.8-25.9,31.8
		c-1.1,16.7-1.8,34.2,0.2,46.7c3.9,25,23.1,28.2,23.1,28.2s0,11.9,0,19.2l11.6,47.9l37.3-51.5l7.7-89.5
		C371.1,200.3,371,201,371,200.4z"/>
	<path class="st5" d="M298.7,218.7c0,1.7,1.4,3.2,3.1,3.2c1.7,0.1,3.2-1.1,3.3-2.8c0,0,0,0,0-0.1c0-1.7-1.3-3.2-3.1-3.2
		C300.4,215.6,298.9,216.9,298.7,218.7C298.7,218.6,298.7,218.6,298.7,218.7z"/>
	<path class="st5" d="M295,209.6c0.4,0.4,2.8-1.4,6.3-1.4s6,1.8,6.4,1.3c0.2-0.2-0.2-0.9-1.3-1.8c-1.5-1-3.3-1.6-5.1-1.6
		c-1.8,0-3.5,0.6-5,1.6C295.1,208.6,294.8,209.4,295,209.6z"/>
	<path class="st5" d="M328.8,218.7c0,1.7,1.4,3.2,3.1,3.2c1.7,0.1,3.2-1.1,3.3-2.8c0,0,0-0.1,0-0.1c0-1.7-1.3-3.2-3.1-3.2
		C330.4,215.6,328.9,216.9,328.8,218.7C328.8,218.6,328.8,218.6,328.8,218.7z"/>
	<path class="st5" d="M327.7,209.6c0.4,0.4,2.8-1.4,6.3-1.4s6,1.8,6.4,1.3c0.2-0.2-0.2-0.9-1.3-1.8c-1.5-1-3.2-1.6-5.1-1.6
		c-1.8,0-3.5,0.6-5,1.6C327.9,208.6,327.5,209.4,327.7,209.6z"/>
	<path class="st5" d="M317,236.7c0-0.2-2.1-0.6-5.6-1c-0.9-0.1-1.7-0.3-1.9-0.9c-0.1-0.9,0.1-1.8,0.6-2.6c0.8-2.1,1.7-4.4,2.6-6.7
		c3.6-9.5,6.3-17.4,5.9-17.5s-3.6,7.5-7.3,17c-0.9,2.3-1.7,4.6-2.5,6.7c-0.6,1.1-0.7,2.3-0.5,3.5c0.3,0.6,0.8,1.1,1.5,1.3
		c0.5,0.1,1,0.2,1.5,0.2C314.8,236.8,316.9,236.9,317,236.7z"/>
	<path class="st10" d="M347.6,265.8c0,0-8.1,17.2-33.2,14.8v-5.9C326.1,274.9,337.6,271.8,347.6,265.8z"/>
	<path class="st5" d="M328.8,197.1c0.3,0.9,3.8,0.5,7.8,1s7.3,1.6,7.9,0.8c0.2-0.4-0.3-1.3-1.6-2.2c-1.8-1.1-3.7-1.8-5.8-2
		c-2.1-0.3-4.2,0-6.1,0.7C329.4,195.9,328.7,196.6,328.8,197.1z"/>
	<path class="st5" d="M296.1,199c0.6,0.8,3,0,5.8-0.1s5.3,0.5,5.8-0.3c0.2-0.4-0.1-1.2-1.2-1.9c-2.9-1.8-6.6-1.7-9.4,0.3
		C296.1,197.8,295.8,198.6,296.1,199z"/>
	<path class="st5" d="M298,176.9c1.5-3.8,5.7-6,9.7-6.2s8,1.3,11.5,3.4c14.9,8.6,22.5,29.4,37.3,38.3c3.6,2.2,8.3,0.2,11.4,3.1
		s5.1,7.5,3.4,11.4c2.1-2.6,3.8-5.5,5.1-8.6c1.1-3.2,1.3-6.8-0.4-9.8c-1.3-2.2-3.5-3.9-4.1-6.4c-0.5-2.2,0.3-4.4,0.2-6.7
		c-0.3-2.3-1-4.5-2.3-6.4c-5.8-10.2-13.7-19.4-23.9-25.1c-6.7-3.8-14.3-5.8-22-5.7c-7.7,0.2-15.2,3.1-20.9,8.3
		C299.7,169.6,296.2,172.8,298,176.9"/>
	<path class="st9" d="M367.6,218.6c0.3-0.7,13.3-5.4,13.5,8.4c0.2,13.5-13.4,10.8-13.5,10.4S367.6,218.6,367.6,218.6z"/>
	<path class="st10" d="M371.7,232.3c0.1,0,0.2,0.2,0.6,0.3c0.6,0.2,1.2,0.2,1.8,0c1.4-0.5,2.6-2.8,2.6-5.2c0-1.2-0.2-2.3-0.7-3.4
		c-0.3-0.9-0.9-1.5-1.8-1.8c-0.6-0.1-1.1,0.1-1.4,0.6c-0.2,0.4-0.1,0.6-0.2,0.7s-0.3-0.2-0.2-0.8c0.1-0.3,0.3-0.6,0.5-0.8
		c0.4-0.3,0.8-0.4,1.3-0.4c1.1,0.2,2.1,1,2.5,2.1c0.6,1.2,0.9,2.4,0.9,3.7c-0.1,2.7-1.4,5.3-3.4,5.9c-0.7,0.2-1.5,0.1-2.1-0.3
		C371.7,232.6,371.6,232.3,371.7,232.3z"/>
	<path class="st7" d="M372.9,211.6c-0.3-0.1-0.6-0.3-0.8-0.4c-0.5-0.3-1.3-0.8-2.3-1.4c-2.7-1.9-5.1-4.2-7.3-6.6
		c-3.2-3.7-6.1-7.5-8.9-11.6c-3.3-4.9-7-9.5-11.1-13.8c-2.2-2.1-4.6-4-7.2-5.7c-2.4-1.5-5-2.7-7.7-3.5c-4.6-1.5-9.4-2.1-14.3-1.8
		c-3.3,0.2-6.5,0.8-9.6,1.9c-1.1,0.3-1.9,0.7-2.5,0.9c-0.3,0.1-0.6,0.2-0.9,0.3c0.3-0.2,0.5-0.3,0.8-0.4c0.8-0.4,1.6-0.7,2.5-1
		c3.1-1.1,6.3-1.8,9.6-2.1c4.9-0.4,9.8,0.1,14.5,1.6c2.8,0.9,5.4,2,7.9,3.5c2.6,1.6,5.1,3.6,7.3,5.8c4.1,4.3,7.8,9,11.1,14
		c2.7,4,5.6,7.9,8.8,11.6c2.1,2.5,4.5,4.7,7.1,6.7c0.9,0.7,1.7,1.2,2.2,1.5C372.4,211.3,372.7,211.4,372.9,211.6z"/>
	<path class="st4" d="M373.2,234.7c1.4-0.3,2.8,0.7,3.1,2.1c0.3,1.4-0.7,2.8-2.1,3.1c-1.4,0.3-2.8-0.7-3.1-2.1
		c-0.2-1.2,0.4-2.4,1.5-2.9"/>
	<path class="st5" d="M372.6,234.9c-0.6,0.5-1,1.1-1.2,1.8c-0.2,0.7,0,1.5,0.5,2.1c0.8,1,2.3,1.1,3.3,0.3c0.5-0.4,0.8-1,0.8-1.6
		c0.1-0.8-0.2-1.5-0.8-2c-0.6-0.5-1.3-0.7-2-0.8c0,0,0.2-0.1,0.6-0.1c0.6,0,1.2,0.2,1.7,0.6c0.8,0.6,1.2,1.5,1.1,2.4
		c-0.1,1.6-1.5,2.8-3.1,2.7c-0.8-0.1-1.6-0.4-2.1-1.1c-0.6-0.7-0.8-1.7-0.5-2.6c0.2-0.6,0.5-1.1,1-1.4
		C372.4,234.9,372.6,234.8,372.6,234.9z"/>
	<path class="st5" d="M369.5,215.4c0.2,3.7,0.4,7.6-1.3,10.8s-6,5.5-9.2,3.7c-2.6-1.5-3.4-4.8-3.8-7.8c-1.3-8.6-1.9-17.2-3.2-25.8
		L369.5,215.4z"/>
	<path class="st7" d="M301.3,170.5c0,0.1,1.2-0.2,3.3-0.3c3.1,0,6.1,0.5,8.9,1.6c2,0.8,3.8,1.7,5.6,2.9c2,1.3,3.9,2.8,5.8,4.4
		c4.2,3.6,8,7.7,11.3,12.2c1.7,2.4,3.2,4.9,4.9,7.2c1.6,2.2,3.4,4.3,5.4,6.1c3.5,3,7.3,5.5,11.4,7.6c3.5,1.8,6.3,3.1,8.3,4l2.3,1
		c0.3,0.1,0.5,0.2,0.8,0.3c-0.2-0.2-0.5-0.3-0.8-0.4l-2.2-1.1c-2-1-4.8-2.3-8.2-4.2c-4-2.2-7.7-4.7-11.2-7.7c-2-1.8-3.7-3.8-5.3-6
		c-1.6-2.3-3.1-4.7-4.9-7.2c-3.3-4.5-7.1-8.7-11.4-12.2c-1.9-1.6-3.8-3.1-5.9-4.4c-1.8-1.2-3.7-2.1-5.7-2.9c-2.9-1.1-6-1.6-9.1-1.4
		c-0.8,0-1.7,0.2-2.5,0.4C301.9,170.3,301.6,170.4,301.3,170.5z"/>
	<path class="st7" d="M369.9,207.1c0.4,0.3,0.8,0.6,1.2,0.8l3.4,2l1.1,0.6c0.5,0.3,1,0.4,1.5,0.5c0.3,0,0.6,0,0.9-0.2
		c0.3-0.2,0.5-0.5,0.5-0.9c0-0.6-0.2-1.2-0.6-1.7l-4-6.3l-0.5,0.5c2.6,1.9,5.9,2.9,9.1,2.7c0.4,0,0.8-0.1,1.2-0.2
		c0.4-0.1,0.8-0.5,1-0.9c0.2-0.5,0.1-1-0.2-1.4c-0.2-0.3-0.5-0.6-0.8-0.8c-1.8-1.7-3.3-3.7-4.6-5.8c-1.1-2-2.1-4.1-2.9-6.2
		c0.1,0.6,0.2,1.2,0.4,1.8c0.5,1.6,1.2,3.2,2,4.7c1.2,2.2,2.8,4.2,4.6,6c0.5,0.5,1,1,0.8,1.4s-0.9,0.6-1.6,0.6
		c-1.5,0.1-3.1-0.1-4.6-0.6c-1.5-0.4-2.9-1.1-4.1-2l-1.6-1.2l1.1,1.7l4,6.3c0.3,0.4,0.5,0.8,0.6,1.3c0,0.4-0.3,0.6-0.8,0.6
		c-0.9-0.2-1.7-0.5-2.4-1l-3.5-1.8C370.7,207.5,370.3,207.3,369.9,207.1z"/>
	<path class="st10" d="M330.1,243c-0.5-2.1-2.5-3.6-4.6-3.4c-1.6,0.2-2.9,1.2-3.6,2.6c-0.7,1.4-0.8,3-0.2,4.5l0.1,0.3
		c1.5,1.6,3.8,2.1,5.8,1.2C329.4,247.3,330.5,245.1,330.1,243z"/>
	<path class="st5" d="M319.2,247.1c0-0.5,3.5-0.4,6.1-3.2s2.4-6.6,2.9-6.6c0.2,0,0.6,0.9,0.6,2.4c-0.1,2-0.9,4-2.2,5.5
		c-1.3,1.5-3.2,2.3-5.1,2.5C320,247.8,319.1,247.3,319.2,247.1z"/>
	<path class="st4" d="M436.7,459c-0.1,0-0.2,0-0.2,0l-0.7,0.1l-2.7,0.2c-2.3,0.2-5.7,0.4-9.8,0.7c-8.3,0.5-19.8,1-32.5,1.2
		s-24.2,0.1-32.5-0.1c-4.2-0.1-7.5-0.2-9.9-0.3l-2.7-0.1H345h-0.2h0.2h0.7h2.7l9.9,0.2c8.3,0.1,19.8,0.2,32.5,0s24.2-0.7,32.5-1.1
		l9.9-0.5l2.7-0.1h0.7L436.7,459z"/>
</g>
<script  type="text/javascript">//<![CDATA[  <-- For SVG support
	if ('WebSocket' in window) {
		(function () {
			function refreshCSS() {
				var sheets = [].slice.call(document.getElementsByTagName("link"));
				var head = document.getElementsByTagName("head")[0];
				for (var i = 0; i < sheets.length; ++i) {
					var elem = sheets[i];
					var parent = elem.parentElement || head;
					parent.removeChild(elem);
					var rel = elem.rel;
					if (elem.href && typeof rel != "string" || rel.length == 0 || rel.toLowerCase() == "stylesheet") {
						var url = elem.href.replace(/(&|\?)_cacheOverride=\d+/, '');
						elem.href = url + (url.indexOf('?') >= 0 ? '&' : '?') + '_cacheOverride=' + (new Date().valueOf());
					}
					parent.appendChild(elem);
				}
			}
			var protocol = window.location.protocol === 'http:' ? 'ws://' : 'wss://';
			var address = protocol + window.location.host + window.location.pathname + '/ws';
			var socket = new WebSocket(address);
			socket.onmessage = function (msg) {
				if (msg.data == 'reload') window.location.reload();
				else if (msg.data == 'refreshcss') refreshCSS();
			};
			if (sessionStorage && !sessionStorage.getItem('IsThisFirstTime_Log_From_LiveServer')) {
				console.log('Live reload enabled.');
				sessionStorage.setItem('IsThisFirstTime_Log_From_LiveServer', true);
			}
		})();
	}
	else {
		console.error('Upgrade your browser. This Browser is NOT supported WebSocket for Live-Reloading.');
	}
	// 
	]]>
</script>
<g>
	<g>
		<path class="st11" d="M113.3,108.6"/>
		<path class="st11" d="M113.4,107.2L113.4,107.2h-0.8c-0.3,0-0.5,0.1-0.7,0.3c-0.1,0.2-0.2,0.5,0,0.7c0.1,0.2,0.4,0.3,0.6,0.3
			l0.7,0l0,0"/>
		<polyline class="st11" points="124.8,106.8 124.8,106.8 124.8,106.8 		"/>
		<circle class="st11" cx="119.2" cy="108.6" r="5.9"/>
		<path class="st11" d="M140.6,108.6c0,3.3-2.6,5.9-5.9,5.9c-3.1,0-5.6-2.4-5.9-5.4c0-0.2,0-0.3,0-0.5c0-0.6,0.1-1.3,0.3-1.8
			c0.8-2.4,3-4.1,5.6-4.1C138,102.7,140.6,105.3,140.6,108.6z"/>
		<path class="st11" d="M129.1,106.8c-2.3-0.8-3.7-0.3-4.3,0c-0.6,0.3-1.4,0.8-1.3,1.1c0.1,0.4,1.1,0.7,1.6,0.3
			c0.1-0.1,0.1-0.1,0.2-0.2c0.5-0.4,1-0.4,1.2-0.5c1.1-0.1,2.2,0.5,2.3,0.6"/>
		<path class="st12" d="M128.9,108.3c0,0-1.9-1.7-3.9,0"/>
		<circle class="st4" cx="119.2" cy="108.6" r="4.5"/>
		<circle class="st4" cx="134.7" cy="108.6" r="4.5"/>
		<polyline class="st11" points="128.8,108.6 128.9,120.4 130.1,120.4 130.1,111.5 		"/>
	</g>
	<text transform="matrix(1.0073 0 0 1 141.3786 114.3909)" class="st13 st14">tica</text>
</g>
</svg>
